<svg width="36" height="36" viewBox="0 0 36 36" fill="none" xmlns="http://www.w3.org/2000/svg">
<path d="M6.96603 7.20001H30.816C33.066 7.20001 34.2 8.26201 34.2 10.422V25.578C34.2 27.72 33.066 28.8 30.816 28.8H6.96603C4.71603 28.8 3.58203 27.72 3.58203 25.578V10.422C3.58203 8.26201 4.71603 7.20001 6.96603 7.20001ZM18.882 22.68L31.014 12.726C31.446 12.366 31.788 11.538 31.248 10.8C30.726 10.062 29.772 10.044 29.142 10.494L18.882 17.442L8.64003 10.494C8.01003 10.044 7.05603 10.062 6.53403 10.8C5.99403 11.538 6.33603 12.366 6.76803 12.726L18.882 22.68Z" fill="#120D0A"/>
</svg>
