<svg width="197" height="290" viewBox="0 0 197 290" fill="none" xmlns="http://www.w3.org/2000/svg">
<g clip-path="url(#clip0_32_1126)">
<path d="M46.5186 118.988C46.5186 118.988 46.5186 118.988 46.5186 118.981C46.5186 118.981 46.5257 118.995 46.5329 119.002C46.5329 119.002 46.5329 118.995 46.5257 118.988H46.5186Z" fill="#331615"/>
<path d="M44.8276 118.275C44.8412 118.275 44.8548 118.262 44.8616 118.255C44.848 118.262 44.8412 118.268 44.8344 118.275H44.8276Z" fill="#331615"/>
<path d="M46.4849 119.87C46.5256 119.789 46.5256 119.829 46.4849 119.87V119.87Z" fill="#331615"/>
<path d="M47.7475 119.979C47.7475 119.979 47.7339 120.006 47.7271 120.026C47.7 120.101 47.795 119.85 47.7475 119.979Z" fill="#331615"/>
<path d="M47.863 119.66C47.9784 119.246 47.9649 118.771 47.8223 118.363C47.5846 117.678 47.0821 117.053 46.4303 116.721C45.8192 116.409 45.018 116.524 44.4951 116.938C44.305 117.087 44.1488 117.291 44.047 117.515C44.0266 117.562 44.013 117.603 43.9927 117.651C44.0266 117.562 44.0334 117.542 44.013 117.596C43.9927 117.637 43.9519 117.752 43.9519 117.752C43.9316 117.807 43.9112 117.854 43.8976 117.909C43.8569 118.051 43.8365 118.194 43.8229 118.343C43.7618 118.961 43.8908 119.626 44.1896 120.176C44.3322 120.44 44.5359 120.678 44.7803 120.854C44.9025 120.942 45.0519 121.01 45.2013 121.051C45.5069 121.234 45.8464 121.343 46.2062 121.329C46.7427 121.309 47.1772 120.983 47.4692 120.549C47.5439 120.447 47.5982 120.332 47.6525 120.216C47.6797 120.155 47.7068 120.087 47.7272 120.026C47.7679 119.904 47.8291 119.789 47.863 119.666V119.66ZM46.6476 119.517C46.634 119.565 46.6204 119.605 46.6068 119.646C46.6068 119.66 46.5933 119.673 46.5865 119.687C46.5593 119.734 46.5389 119.782 46.505 119.829C46.4914 119.843 46.4778 119.863 46.471 119.884C46.471 119.877 46.471 119.87 46.4778 119.863C46.4439 119.897 46.4167 119.938 46.3828 119.965C46.376 119.972 46.342 119.999 46.3217 120.019C46.3013 120.033 46.2741 120.053 46.2606 120.06C46.2198 120.087 46.1723 120.108 46.1315 120.128C46.1044 120.142 46.0569 120.162 46.0229 120.169C46.0025 120.169 45.9822 120.169 45.9754 120.169C45.9007 120.182 45.8192 120.196 45.7445 120.196C45.6902 120.121 45.6223 120.06 45.5272 120.033C45.4457 120.013 45.3575 119.985 45.276 119.965C45.242 119.958 45.2081 119.938 45.2081 119.938C45.1741 119.924 45.147 119.904 45.1198 119.89C45.0995 119.877 45.0859 119.863 45.0655 119.85C45.0519 119.843 45.0519 119.843 45.0451 119.843C45.0248 119.816 44.9976 119.789 44.9908 119.782C44.9637 119.755 44.9433 119.721 44.9161 119.694C44.9025 119.673 44.889 119.653 44.8754 119.639C44.855 119.599 44.8278 119.565 44.8075 119.524C44.8075 119.517 44.8007 119.504 44.7939 119.497C44.7939 119.497 44.7939 119.497 44.7939 119.504V119.497C44.7939 119.483 44.7803 119.47 44.7735 119.463C44.7464 119.415 44.7735 119.449 44.7871 119.476C44.7735 119.409 44.6988 119.252 44.692 119.219C44.692 119.205 44.6853 119.185 44.6785 119.171C44.6717 119.13 44.6649 119.09 44.6581 119.042C44.6581 118.995 44.6445 118.947 44.6445 118.9C44.6445 118.886 44.6445 118.866 44.6445 118.852C44.6445 118.771 44.6717 118.676 44.6649 118.594C44.6649 118.587 44.6649 118.581 44.6649 118.574C44.6785 118.519 44.692 118.472 44.7124 118.418C44.7124 118.418 44.7124 118.418 44.7192 118.404C44.7192 118.397 44.7396 118.363 44.7464 118.35C44.76 118.329 44.7803 118.309 44.7939 118.289C44.8007 118.282 44.8075 118.275 44.8143 118.268C44.8143 118.268 44.8075 118.268 44.8007 118.268C44.8007 118.268 44.8075 118.268 44.8143 118.268C44.8143 118.268 44.8211 118.268 44.8278 118.255C44.8686 118.214 44.8618 118.228 44.8482 118.248C44.8754 118.234 44.9025 118.214 44.9093 118.207C44.9229 118.2 44.9365 118.194 44.9569 118.187C44.9976 118.187 45.2149 118.153 45.2624 118.146C45.2828 118.146 45.3032 118.146 45.3235 118.153C45.3778 118.166 45.439 118.18 45.4933 118.194C45.5069 118.194 45.5272 118.207 45.5408 118.207C45.5883 118.234 45.6427 118.255 45.6902 118.289C45.8803 118.397 46.0568 118.526 46.2334 118.655C46.247 118.669 46.2606 118.676 46.2673 118.689C46.3081 118.73 46.3488 118.771 46.3828 118.811C46.4235 118.859 46.4643 118.906 46.4982 118.954C46.4982 118.954 46.4982 118.961 46.505 118.967C46.505 118.954 46.4914 118.947 46.4914 118.94C46.4914 118.947 46.505 118.961 46.5118 118.974C46.5186 118.988 46.5322 118.995 46.5389 119.008C46.6136 119.103 46.5525 119.042 46.5186 118.988C46.5389 119.022 46.5729 119.062 46.5865 119.09C46.5933 119.103 46.6136 119.144 46.6272 119.171C46.6408 119.205 46.6544 119.239 46.6747 119.273C46.6001 119.13 46.6408 119.205 46.6747 119.28C46.6747 119.293 46.6747 119.314 46.6747 119.327C46.6747 119.354 46.6544 119.449 46.6747 119.375C46.668 119.415 46.6544 119.449 46.6476 119.49V119.517Z" fill="#331615"/>
<path d="M50.9661 133.899C50.7624 133.831 50.5384 133.818 50.3211 133.838C50.2192 133.845 50.1106 133.865 50.0155 133.893C49.9612 133.906 49.9069 133.92 49.8526 133.94C49.8322 133.94 49.805 133.954 49.7779 133.96C49.7439 133.906 49.6964 133.865 49.6421 133.886C49.2483 134.015 48.8748 134.171 48.5625 134.442C48.4334 134.558 48.318 134.693 48.223 134.843C48.189 134.897 48.1551 134.958 48.1211 135.019C48.1075 135.053 48.0939 135.087 48.0804 135.121C48.0736 135.141 48.0328 135.25 48.0464 135.203V135.216C48.0464 135.223 48.0464 135.23 48.0396 135.243C48.0396 135.243 48.0396 135.25 48.0328 135.257C48.0328 135.257 48.0396 135.236 48.0532 135.203C48.0532 135.196 48.0532 135.189 48.0668 135.162C48.0464 135.223 48.0328 135.25 48.0261 135.257C47.8563 135.528 47.7341 135.827 47.7069 136.153C47.6594 136.764 47.9717 137.307 48.4402 137.68C48.447 137.687 48.4606 137.693 48.4742 137.7C48.8273 138.135 49.3026 138.488 49.8662 138.583C50.6334 138.705 51.2989 138.318 51.6587 137.646C51.8964 137.198 51.9711 136.696 52.005 136.2C52.0186 135.983 52.0186 135.766 52.005 135.549C52.005 135.481 51.9914 135.413 51.9847 135.345C51.9847 135.311 51.9711 135.284 51.9711 135.25C51.9643 135.203 51.9507 135.155 51.9371 135.101C51.8217 134.558 51.5161 134.089 50.9729 133.906L50.9661 133.899ZM51.1766 135.223C51.1631 135.107 51.1766 135.223 51.1698 135.25C51.1698 135.277 51.1698 135.304 51.1631 135.338C51.1359 135.474 51.1019 135.603 51.0612 135.739C51.0476 135.773 51.034 135.813 51.0273 135.847C51.0137 135.874 50.9594 136.031 51.0069 135.908C51.0476 135.786 50.9933 135.929 50.9865 135.956C50.9661 136.003 50.9458 136.051 50.9186 136.098C50.8439 136.241 50.7624 136.383 50.681 136.519C50.6674 136.533 50.6606 136.546 50.647 136.56C50.5995 136.614 50.5519 136.662 50.5044 136.709C50.484 136.73 50.4637 136.75 50.4433 136.77C50.4433 136.77 50.4365 136.777 50.4297 136.784C50.4026 136.804 50.3754 136.818 50.3415 136.838C50.3075 136.859 50.2668 136.872 50.226 136.893C50.2057 136.893 50.1853 136.899 50.1649 136.906C50.1174 136.913 50.0631 136.92 50.0155 136.92C50.002 136.92 49.9952 136.92 49.9816 136.92C49.8729 136.906 49.7643 136.886 49.6625 136.845C49.6625 136.845 49.6489 136.845 49.6421 136.838C49.5878 136.811 49.5334 136.784 49.4791 136.75C49.3841 136.696 49.2958 136.621 49.2075 136.56C49.1939 136.553 49.1871 136.54 49.1736 136.533C49.126 136.492 49.0853 136.445 49.0446 136.397C49.0106 136.363 48.9699 136.282 48.9291 136.261C48.9088 136.255 49.0649 136.411 48.997 136.35C48.9834 136.336 48.9088 136.241 48.868 136.187C48.868 136.187 48.868 136.18 48.8612 136.173C48.8612 136.173 48.8544 136.16 48.8476 136.153C48.8476 136.153 48.8612 136.166 48.8816 136.193C48.868 136.18 48.8544 136.166 48.8476 136.146C48.8341 136.132 48.8273 136.112 48.8137 136.098C48.8001 136.078 48.7865 136.051 48.773 136.031C48.773 136.031 48.7662 136.017 48.7594 136.01C48.7458 135.976 48.7322 135.942 48.7186 135.902C48.7186 135.881 48.7051 135.861 48.6983 135.841C48.6915 135.786 48.6847 135.732 48.6779 135.678C48.6779 135.65 48.6779 135.623 48.6779 135.596C48.7933 135.467 48.9155 135.345 49.0513 135.23C49.0513 135.23 49.0649 135.223 49.0717 135.216C49.0921 135.203 49.1125 135.189 49.1328 135.169C49.1804 135.135 49.2279 135.101 49.2754 135.074C49.3637 135.012 49.4588 134.965 49.5538 134.911C49.6489 134.863 49.7507 134.816 49.8526 134.775C49.8797 134.768 49.9069 134.755 49.9273 134.748C49.9816 134.734 50.0291 134.721 50.0834 134.707C50.1785 134.687 50.2736 134.673 50.3686 134.66C50.4161 134.66 50.4637 134.66 50.5044 134.66C50.5316 134.66 50.5519 134.66 50.5791 134.66C50.5723 134.66 50.5655 134.66 50.5587 134.66C50.5655 134.66 50.5791 134.66 50.5859 134.66C50.6742 134.666 50.7557 134.687 50.8371 134.707C50.8507 134.707 50.8711 134.721 50.8847 134.721C50.9186 134.741 50.9594 134.761 50.9933 134.782C50.9933 134.782 51.0069 134.788 51.0137 134.795C51.0205 134.802 51.0273 134.809 51.034 134.816C51.0476 134.829 51.0612 134.843 51.0748 134.856C51.0884 134.884 51.1087 134.911 51.1223 134.938C51.1223 134.951 51.1359 134.972 51.1427 134.985C51.1427 134.999 51.1495 135.012 51.1563 135.026C51.1631 135.074 51.1698 135.128 51.1766 135.175C51.1766 135.203 51.1902 135.311 51.1766 135.196V135.223Z" fill="#331615"/>
<path d="M51.937 135.128C51.937 135.128 51.9302 135.108 51.9302 135.094C51.937 135.135 51.9505 135.203 51.937 135.128Z" fill="#331615"/>
<path d="M51.9172 135.067C51.9172 135.067 51.9172 135.088 51.9172 135.095C51.9172 135.081 51.9172 135.067 51.9102 135.067H51.9172Z" fill="#331615"/>
<path d="M127.3 97.9336C127.3 97.9336 127.307 97.9404 127.314 97.9472C127.314 97.954 127.314 97.9472 127.321 97.9607C127.321 97.9607 127.327 97.9607 127.327 97.9675C127.327 97.9607 127.307 97.9404 127.3 97.9336Z" fill="#331615"/>
<path d="M130.736 95.5174C130.566 95.2323 130.342 94.9812 130.057 94.8047C129.982 94.7572 129.894 94.7029 129.806 94.6622C129.779 94.6486 129.758 94.6418 129.731 94.635C129.731 94.635 129.731 94.635 129.724 94.635C129.663 94.6146 129.595 94.6011 129.534 94.5875C129.46 94.5671 129.378 94.5536 129.297 94.54C129.235 94.4653 129.161 94.411 129.059 94.3907C128.862 94.3432 128.652 94.35 128.448 94.3771C128.448 94.3771 128.448 94.3771 128.441 94.3771C128.169 94.3567 127.891 94.3771 127.633 94.4382C127.117 94.5604 126.682 94.9065 126.54 95.4291C126.492 95.5988 126.485 95.7685 126.499 95.945C126.499 95.9993 126.519 96.0468 126.547 96.0943C126.411 96.6101 126.397 97.1395 126.513 97.6621C126.567 97.8997 126.655 98.1305 126.777 98.3409C126.798 98.3748 126.818 98.402 126.839 98.4359C126.934 98.5852 126.811 98.3952 126.852 98.463C126.893 98.5309 126.94 98.5988 126.988 98.6667C127.069 98.7685 127.158 98.8567 127.26 98.9382C127.674 99.2843 128.224 99.3522 128.74 99.2368C129.025 99.1757 129.331 99.0671 129.595 98.9449C130.043 98.7413 130.397 98.3341 130.648 97.9201C131.089 97.2006 131.191 96.2843 130.736 95.5377V95.5174ZM129.493 96.7187C129.446 96.7866 129.392 96.8477 129.337 96.9088C129.303 96.9427 129.263 96.9834 129.229 97.0174C129.161 97.0852 129.093 97.1531 129.032 97.2278C129.032 97.2278 129.032 97.2345 129.025 97.2413C129.025 97.2413 129.025 97.2413 129.025 97.2481C129.011 97.2617 129.011 97.2617 129.011 97.2617C128.916 97.3567 128.828 97.4517 128.753 97.5603C128.747 97.5739 128.726 97.5875 128.719 97.6011C128.74 97.5807 128.767 97.5603 128.787 97.5332C128.753 97.5739 128.713 97.6146 128.679 97.6486C128.652 97.6757 128.631 97.7097 128.604 97.7368C128.597 97.7504 128.577 97.764 128.563 97.7843C128.55 97.7979 128.536 97.8047 128.529 97.8115C128.434 97.8861 128.332 97.954 128.224 98.0219C128.203 98.0287 128.19 98.0354 128.169 98.0422C128.122 98.0626 128.068 98.083 128.013 98.0965C127.973 98.1101 127.932 98.1169 127.891 98.1237C127.891 98.1237 127.898 98.1237 127.905 98.1237H127.891C127.891 98.1237 127.891 98.1237 127.884 98.1237C127.837 98.1305 127.844 98.1237 127.857 98.1237C127.85 98.1237 127.837 98.1237 127.83 98.1237C127.789 98.1237 127.748 98.1237 127.701 98.1237C127.681 98.1237 127.66 98.1237 127.64 98.1169C127.613 98.1033 127.572 98.0965 127.545 98.083L127.49 98.0558C127.49 98.0558 127.633 98.144 127.504 98.0694C127.49 98.0626 127.409 98.0015 127.355 97.9608C127.355 97.9608 127.355 97.9608 127.348 97.954C127.327 97.9404 127.321 97.9268 127.321 97.9268C127.321 97.9268 127.321 97.9268 127.327 97.9268C127.321 97.9133 127.307 97.9065 127.3 97.8929C127.3 97.8929 127.3 97.8929 127.3 97.8861C127.294 97.8725 127.28 97.859 127.28 97.8522C127.26 97.8115 127.239 97.7707 127.219 97.73C127.212 97.7097 127.198 97.6893 127.192 97.6757C127.164 97.5875 127.131 97.4925 127.11 97.3974C127.11 97.3974 127.11 97.3771 127.103 97.3703C127.103 97.3635 127.103 97.3567 127.103 97.3431C127.097 97.2888 127.09 97.2345 127.083 97.187C127.083 97.1395 127.076 97.092 127.076 97.0445C127.076 97.0173 127.076 96.997 127.076 96.9698C127.076 96.9698 127.076 96.9698 127.076 96.9631C127.076 96.8545 127.09 96.7526 127.11 96.6441C127.11 96.6305 127.11 96.6169 127.117 96.6033C127.117 96.6033 127.117 96.6033 127.117 96.583C127.117 96.583 127.117 96.5762 127.117 96.5694C127.117 96.5762 127.117 96.5762 127.117 96.583C127.117 96.583 127.117 96.5694 127.117 96.5626C127.131 96.5083 127.144 96.454 127.164 96.4065C127.198 96.3047 127.239 96.2097 127.28 96.1146C127.28 96.1146 127.28 96.1011 127.287 96.0943C127.3 96.0739 127.307 96.0536 127.321 96.0332C127.348 95.9857 127.382 95.9314 127.416 95.8839C127.443 95.8432 127.47 95.8092 127.504 95.7685C127.518 95.7481 127.538 95.7278 127.552 95.7074C127.552 95.7074 127.552 95.7074 127.552 95.7006C127.552 95.7006 127.552 95.7006 127.565 95.687C127.647 95.6124 127.728 95.5377 127.816 95.4766C127.864 95.4427 127.905 95.4155 127.952 95.3884C127.966 95.3884 127.979 95.3748 127.993 95.368C128.013 95.3545 128.04 95.3477 128.061 95.3341C128.156 95.2934 128.251 95.2662 128.346 95.2391C128.427 95.2391 128.502 95.2391 128.584 95.2527C128.638 95.2594 128.699 95.2662 128.753 95.2798C128.781 95.2798 128.801 95.2866 128.828 95.2934C128.842 95.2934 128.869 95.307 128.882 95.307C128.93 95.3205 128.977 95.3341 129.025 95.3477C129.052 95.3545 129.079 95.368 129.106 95.3748C129.12 95.3748 129.12 95.3748 129.127 95.3748C129.229 95.4495 129.317 95.5309 129.412 95.6124C129.453 95.6599 129.5 95.7074 129.541 95.7481C129.548 95.7549 129.568 95.7753 129.582 95.7889C129.616 95.8228 129.65 95.8635 129.684 95.8974C129.711 95.9314 129.745 95.9925 129.758 96.0196C129.752 96.006 129.731 95.9721 129.704 95.9178C129.724 95.9585 129.752 95.9993 129.772 96.0468C129.772 96.0739 129.779 96.1011 129.785 96.1214C129.785 96.1282 129.785 96.135 129.785 96.1418C129.752 96.2368 129.718 96.3318 129.677 96.4336C129.67 96.454 129.656 96.4676 129.65 96.4879C129.609 96.5558 129.561 96.6237 129.514 96.6916L129.493 96.7187Z" fill="#331615"/>
<path d="M135.774 110.103C135.435 109.805 134.973 109.662 134.538 109.594C133.459 109.424 131.911 109.805 131.659 111.04C131.659 111.06 131.659 111.087 131.659 111.108C131.646 111.148 131.625 111.189 131.612 111.237C131.537 111.501 131.456 111.766 131.415 112.038C131.306 112.791 131.374 113.531 131.734 114.209C132.012 114.732 132.461 115.228 133.038 115.424C133.622 115.628 134.206 115.553 134.762 115.302C135.394 115.017 135.951 114.433 136.209 113.789C136.338 113.456 136.419 113.117 136.48 112.764C136.548 112.39 136.548 112.051 136.48 111.685C136.385 111.128 136.215 110.504 135.774 110.117V110.103ZM135.659 111.739C135.659 111.881 135.645 111.929 135.611 112.044C135.604 112.071 135.591 112.099 135.584 112.133C135.55 112.234 135.516 112.343 135.489 112.445C135.53 112.295 135.475 112.479 135.462 112.519C135.448 112.553 135.394 112.662 135.407 112.642C135.353 112.723 135.306 112.811 135.244 112.893C135.231 112.913 135.211 112.933 135.197 112.954C135.197 112.961 135.197 112.961 135.19 112.967C135.136 113.028 135.088 113.096 135.034 113.157C135.034 113.157 135.034 113.164 135.027 113.171C134.986 113.212 134.946 113.259 134.898 113.3C134.83 113.368 134.749 113.429 134.681 113.504C134.633 113.538 134.586 113.565 134.538 113.592C134.511 113.605 134.477 113.626 134.45 113.639C134.443 113.639 134.436 113.639 134.43 113.646C134.382 113.66 134.335 113.68 134.287 113.687C134.253 113.694 134.083 113.714 134.192 113.714C134.172 113.714 134.151 113.714 134.144 113.714C134.097 113.714 134.049 113.714 133.995 113.714C133.954 113.714 133.914 113.707 133.873 113.7C133.873 113.7 133.853 113.7 133.832 113.694C133.744 113.66 133.656 113.633 133.567 113.592C133.533 113.571 133.499 113.551 133.465 113.538C133.465 113.538 133.465 113.538 133.452 113.531C133.438 113.524 133.425 113.51 133.418 113.504C133.336 113.436 133.262 113.361 133.194 113.286C133.16 113.246 133.119 113.205 133.092 113.164C133.078 113.144 133.065 113.117 133.058 113.096C133.011 113.022 132.97 112.947 132.936 112.866C132.922 112.838 132.909 112.811 132.895 112.777C132.895 112.777 132.875 112.723 132.861 112.696C132.861 112.696 132.861 112.696 132.861 112.689C132.848 112.642 132.834 112.601 132.827 112.553C132.814 112.506 132.807 112.458 132.8 112.404C132.8 112.404 132.8 112.418 132.8 112.424C132.8 112.424 132.8 112.404 132.8 112.384C132.8 112.384 132.8 112.37 132.8 112.363C132.8 112.329 132.8 112.323 132.8 112.323C132.8 112.255 132.8 112.187 132.8 112.119C132.8 112.071 132.807 112.024 132.814 111.976C132.814 111.956 132.814 111.943 132.82 111.922C132.861 111.617 132.956 111.284 132.949 110.979C132.949 110.904 132.936 110.836 132.922 110.768C132.936 110.755 132.956 110.741 132.956 110.741C132.99 110.721 133.017 110.694 133.051 110.673C133.146 110.612 133.133 110.619 133.248 110.578C133.35 110.544 133.459 110.517 133.567 110.49C133.757 110.449 133.92 110.436 134.117 110.436C134.491 110.436 134.871 110.49 135.19 110.7C135.496 110.904 135.713 111.332 135.699 111.732L135.659 111.739Z" fill="#331615"/>
<path d="M132.766 112.323C132.766 112.323 132.766 112.357 132.766 112.384C132.766 112.384 132.766 112.397 132.766 112.404C132.773 112.37 132.766 112.323 132.759 112.323H132.766Z" fill="#331615"/>
<path d="M70.5759 204.806C70.5759 204.806 70.5827 204.793 70.5895 204.793C70.5555 204.82 70.5352 204.84 70.5352 204.847C70.5487 204.833 70.5623 204.826 70.5759 204.813V204.806Z" fill="#331615"/>
<path d="M71.0784 201.955C70.4673 201.399 69.6118 201.229 68.8581 201.589C68.3556 201.833 68.0093 202.308 67.8667 202.838C67.8124 203.048 67.7988 203.265 67.8056 203.483C67.7649 203.571 67.7377 203.666 67.7106 203.761C67.663 203.931 67.6766 204.134 67.6766 204.317C67.6766 204.921 67.9143 205.546 68.2741 206.028C68.797 206.72 69.7815 206.666 70.4741 206.272C70.8068 206.082 71.1395 205.79 71.3704 205.485C71.5945 205.193 71.7303 204.867 71.8185 204.514C72.0562 203.618 71.7642 202.566 71.0784 201.942V201.955ZM70.7864 204.175C70.7864 204.216 70.7864 204.256 70.7864 204.297C70.7864 204.317 70.7864 204.331 70.7864 204.351C70.7729 204.44 70.7593 204.521 70.7389 204.609C70.7253 204.63 70.705 204.67 70.705 204.677C70.705 204.677 70.705 204.677 70.6982 204.684C70.671 204.718 70.6439 204.752 70.6167 204.786C70.6303 204.779 70.6303 204.772 70.6506 204.759C70.6371 204.772 70.6235 204.786 70.6031 204.806C70.6031 204.806 70.6031 204.813 70.5963 204.82C70.576 204.847 70.5556 204.854 70.5624 204.847C70.542 204.86 70.5216 204.881 70.5013 204.894C70.5013 204.894 70.4945 204.894 70.4877 204.901H70.4741C70.4469 204.901 70.4198 204.908 70.3926 204.908C70.3587 204.901 70.2568 204.881 70.1821 204.867C70.1074 204.833 70.0328 204.799 69.9649 204.759C69.897 204.691 69.8358 204.616 69.7815 204.535C69.6729 204.324 69.5846 204.107 69.4624 203.91C69.4963 203.964 69.5303 204.026 69.5642 204.08C69.4624 203.89 69.3877 203.686 69.2655 203.503C69.2994 203.557 69.3266 203.612 69.3605 203.666C69.2791 203.523 69.2044 203.367 69.1093 203.225C69.0957 203.13 69.0821 203.035 69.0889 202.94C69.0889 202.919 69.0889 202.892 69.0889 202.872C69.0957 202.817 69.1025 202.77 69.1161 202.716C69.1161 202.702 69.1229 202.688 69.1297 202.675C69.1433 202.648 69.1568 202.621 69.1704 202.593C69.1704 202.593 69.1704 202.593 69.1772 202.587C69.184 202.58 69.1908 202.566 69.1976 202.56C69.1976 202.56 69.2112 202.546 69.2179 202.539C69.2179 202.539 69.2315 202.532 69.2383 202.526C69.2723 202.512 69.3062 202.505 69.3402 202.492C69.347 202.492 69.3537 202.492 69.3605 202.492C69.4013 202.492 69.4352 202.485 69.476 202.485C69.476 202.485 69.4895 202.485 69.5099 202.485C69.5303 202.485 69.5574 202.485 69.5778 202.485C69.5642 202.485 69.5574 202.485 69.5439 202.485C69.5914 202.485 69.6457 202.498 69.6932 202.505C69.734 202.512 69.7747 202.526 69.8155 202.539C69.8358 202.546 69.863 202.56 69.8902 202.566C69.992 202.607 70.0871 202.661 70.1753 202.722C70.1957 202.736 70.2161 202.75 70.2365 202.763C70.2772 202.804 70.3247 202.838 70.3587 202.879C70.3926 202.919 70.4266 202.96 70.4605 203.001C70.4945 203.041 70.5216 203.102 70.5556 203.143C70.5556 203.143 70.5556 203.157 70.5624 203.164C70.576 203.191 70.5895 203.211 70.6031 203.238C70.6303 203.299 70.6574 203.36 70.6778 203.421C70.6982 203.476 70.7185 203.537 70.7321 203.598C70.7389 203.632 70.7457 203.666 70.7593 203.7C70.7593 203.7 70.7593 203.7 70.7593 203.707C70.7797 203.856 70.7932 204.005 70.7864 204.161V204.175Z" fill="#331615"/>
<path d="M76.2864 217.234C76.1982 217.023 76.0556 216.806 75.879 216.657C75.5056 216.351 75.0438 216.182 74.5753 216.093C74.1204 216.012 73.6247 216.053 73.2105 216.27C72.9457 216.406 72.6945 216.589 72.5315 216.84C72.5112 216.867 72.4908 216.915 72.4772 216.942C72.4365 216.989 72.3957 217.023 72.355 217.071C71.9476 217.614 71.9272 218.306 72.0834 218.944C72.226 219.548 72.5519 220.166 73.1426 220.43C73.8352 220.736 74.5685 220.444 75.1253 220.003C75.7296 219.521 76.2864 218.903 76.3883 218.102C76.429 217.797 76.4019 217.505 76.2864 217.22V217.234ZM74.7587 218.822C74.7587 218.822 74.7247 218.883 74.7043 218.91C74.6636 218.978 74.6161 219.039 74.5685 219.107C74.5278 219.134 74.4735 219.222 74.4463 219.249C74.3852 219.317 74.3173 219.385 74.2494 219.446C74.2494 219.446 74.2358 219.453 74.2358 219.46C74.2019 219.487 74.1611 219.507 74.1272 219.535C74.1136 219.535 74.1068 219.548 74.0932 219.548C74.0797 219.548 74.0185 219.575 74.005 219.582C73.9914 219.582 73.9778 219.582 73.971 219.589C73.9506 219.589 73.9303 219.589 73.9099 219.596C73.9031 219.596 73.8963 219.596 73.8895 219.596C73.9031 219.589 73.9167 219.596 73.8692 219.596C73.8488 219.596 73.8352 219.596 73.8148 219.589C73.8013 219.589 73.8081 219.589 73.8013 219.589C73.7266 219.562 73.6519 219.534 73.584 219.501C73.5704 219.494 73.55 219.48 73.5365 219.473C73.5161 219.453 73.4889 219.439 73.4685 219.419C73.4006 219.365 73.3395 219.304 73.2852 219.243C73.2581 219.209 73.2309 219.182 73.2105 219.148C73.1969 219.134 73.1969 219.134 73.1969 219.127C73.1969 219.127 73.1969 219.127 73.1902 219.114C73.1426 219.032 73.0951 218.958 73.0544 218.869C73.0204 218.795 72.9865 218.713 72.9593 218.639C72.9457 218.598 72.9321 218.55 72.9186 218.51C72.9389 218.577 72.8982 218.435 72.8982 218.415C72.8778 218.326 72.871 218.238 72.8642 218.15C72.8642 218.102 72.8642 218.055 72.8574 218.007C72.8574 217.98 72.8574 217.96 72.8574 217.933C72.8574 217.851 72.871 217.77 72.8846 217.688V217.675C72.8982 217.641 72.9118 217.607 72.9253 217.573C72.9253 217.566 72.9253 217.573 72.9253 217.559C72.9457 217.525 72.9593 217.498 72.9797 217.464C72.9797 217.464 72.9932 217.444 73 217.43C73.0136 217.417 73.034 217.396 73.0476 217.376C73.0747 217.349 73.1019 217.322 73.129 217.295C73.129 217.295 73.1426 217.288 73.1494 217.281C73.2037 217.24 73.2648 217.2 73.326 217.159C73.3395 217.152 73.3395 217.152 73.3463 217.145C73.3463 217.145 73.3463 217.145 73.3531 217.145C73.3531 217.145 73.3667 217.145 73.3735 217.139C73.421 217.139 73.4685 217.139 73.5161 217.139C73.6179 217.139 73.7266 217.152 73.8284 217.173C73.8556 217.173 73.8827 217.186 73.9099 217.193C73.9031 217.193 73.8963 217.193 73.8895 217.193C73.9371 217.206 73.9846 217.227 74.0321 217.24C74.0864 217.261 74.1408 217.281 74.1951 217.308C74.2222 217.322 74.2494 217.335 74.2698 217.349C74.2698 217.349 74.2766 217.349 74.2834 217.356C74.4395 217.492 74.5889 217.614 74.7111 217.783C74.7383 217.824 74.7655 217.865 74.7926 217.906C74.7655 217.865 74.7315 217.817 74.7043 217.777C74.7654 217.872 74.8198 217.967 74.8605 218.075C74.8605 218.089 74.8673 218.102 74.8741 218.109C74.8809 218.157 74.8877 218.211 74.8945 218.258C74.8945 218.306 74.9013 218.347 74.908 218.387C74.908 218.408 74.908 218.428 74.908 218.449C74.908 218.469 74.9013 218.489 74.8945 218.51C74.8741 218.564 74.8537 218.618 74.8334 218.666C74.8062 218.727 74.7858 218.788 74.7587 218.842V218.822Z" fill="#331615"/>
<path d="M73.8897 217.172C73.7743 217.159 73.849 217.159 73.8897 217.172V217.172Z" fill="#331615"/>
<path d="M72.4976 216.894C72.4976 216.894 72.5247 216.853 72.5315 216.847C72.5315 216.847 72.5315 216.853 72.5247 216.86C72.5111 216.881 72.5044 216.894 72.5044 216.901L72.4976 216.894Z" fill="#331615"/>
<path d="M150.882 182.646C150.882 182.646 150.895 182.646 150.902 182.646C150.909 182.646 150.916 182.646 150.923 182.639C150.929 182.639 150.943 182.632 150.95 182.625C150.956 182.619 150.936 182.625 150.875 182.652L150.882 182.646Z" fill="#331615"/>
<path d="M151.201 182.503C151.201 182.503 151.215 182.496 151.222 182.49C151.228 182.49 151.235 182.483 151.242 182.476C151.249 182.469 151.255 182.462 151.269 182.456C151.269 182.442 151.255 182.456 151.201 182.503Z" fill="#331615"/>
<path d="M149.911 181.797V181.804C149.884 181.689 149.891 181.763 149.911 181.797Z" fill="#331615"/>
<path d="M152.539 180.121C152.315 179.578 151.88 179.055 151.283 178.906C150.991 178.831 150.692 178.872 150.427 179.001C150.305 179.062 150.21 179.137 150.115 179.218C150.088 179.232 150.06 179.232 150.033 179.252C149.626 179.483 149.354 179.897 149.198 180.331C149.015 180.82 148.954 181.322 148.92 181.838C148.913 181.94 148.906 182.048 148.913 182.15C148.913 182.225 148.913 182.299 148.927 182.381C148.927 182.367 148.927 182.361 148.927 182.354C148.927 182.449 148.94 182.551 148.947 182.646C148.974 182.897 149.035 183.155 149.157 183.379C149.388 183.813 149.741 184.207 150.251 184.302C150.814 184.41 151.412 184.173 151.853 183.827C152.899 182.999 153.035 181.281 152.552 180.114L152.539 180.121ZM151.507 181.254C151.534 181.363 151.548 181.471 151.561 181.58C151.561 181.58 151.561 181.587 151.561 181.594C151.561 181.641 151.561 181.689 151.561 181.736C151.561 181.797 151.561 181.858 151.554 181.913C151.554 181.926 151.554 181.933 151.554 181.947C151.554 181.987 151.541 182.028 151.534 182.069C151.52 182.096 151.514 182.123 151.5 182.15C151.486 182.177 151.473 182.211 151.459 182.238C151.473 182.225 151.473 182.218 151.493 182.198C151.493 182.184 151.52 182.109 151.534 182.076C151.52 182.143 151.507 182.204 151.486 182.211C151.486 182.211 151.486 182.211 151.486 182.204C151.473 182.225 151.459 182.245 151.446 182.266C151.446 182.272 151.446 182.279 151.432 182.286C151.425 182.3 151.418 182.313 151.405 182.327C151.398 182.327 151.391 182.34 151.385 182.347C151.385 182.347 151.385 182.333 151.398 182.32C151.385 182.333 151.371 182.354 151.364 182.367C151.364 182.367 151.357 182.374 151.351 182.381C151.323 182.408 151.296 182.428 151.269 182.456C151.269 182.462 151.249 182.476 151.228 182.49C151.208 182.503 151.194 182.51 151.181 182.523C151.194 182.51 151.201 182.51 151.208 182.496C151.16 182.523 151.113 182.551 151.065 182.571C151.031 182.585 150.998 182.605 150.964 182.618C150.964 182.618 150.943 182.632 150.916 182.639C150.916 182.639 150.916 182.639 150.909 182.639C150.889 182.639 150.869 182.652 150.855 182.659C150.869 182.652 150.875 182.646 150.889 182.646C150.814 182.659 150.739 182.673 150.658 182.68C150.624 182.68 150.597 182.673 150.563 182.666C150.536 182.666 150.509 182.652 150.481 182.639C150.427 182.605 150.373 182.571 150.325 182.53C150.298 182.503 150.271 182.469 150.251 182.442C150.23 182.415 150.21 182.381 150.19 182.354C150.176 182.327 150.162 182.306 150.149 182.279C150.122 182.232 150.094 182.184 150.067 182.137C150.033 182.069 149.999 182.001 149.972 181.933C149.959 181.892 149.945 181.852 149.925 181.811C149.925 181.831 149.938 181.858 149.945 181.892C149.931 181.831 149.911 181.777 149.898 181.723C149.898 181.702 149.891 181.689 149.884 181.675C149.87 181.628 149.864 181.587 149.857 181.539C149.85 181.492 149.843 181.451 149.836 181.404C149.836 181.397 149.836 181.39 149.836 181.383C149.836 181.288 149.836 181.193 149.85 181.098C149.85 181.085 149.85 181.071 149.85 181.057C149.85 181.071 149.85 181.078 149.843 181.098C149.857 181.051 149.857 180.996 149.87 180.949C149.884 180.861 149.911 180.779 149.931 180.698C149.931 180.698 149.931 180.711 149.925 180.711C149.925 180.711 149.931 180.691 149.938 180.684C149.938 180.671 149.945 180.657 149.952 180.643C149.952 180.623 149.959 180.623 149.959 180.63C149.979 180.589 149.999 180.548 150.013 180.508C149.999 180.528 149.986 180.542 150.02 180.494C150.02 180.494 150.02 180.494 150.02 180.487C150.027 180.474 150.04 180.453 150.04 180.453C150.04 180.453 150.04 180.467 150.033 180.474C150.054 180.447 150.074 180.419 150.094 180.392C150.101 180.379 150.115 180.372 150.122 180.358C150.149 180.331 150.176 180.304 150.21 180.284C150.217 180.277 150.217 180.277 150.223 180.27C150.257 180.257 150.285 180.236 150.319 180.223C150.319 180.223 150.339 180.209 150.359 180.209C150.366 180.209 150.38 180.209 150.386 180.202C150.38 180.202 150.38 180.202 150.373 180.209C150.414 180.209 150.461 180.195 150.502 180.189C150.549 180.189 150.672 180.209 150.549 180.189C150.597 180.195 150.638 180.195 150.685 180.209C150.78 180.229 150.882 180.263 150.977 180.297C150.984 180.304 150.998 180.311 151.004 180.318C151.018 180.331 151.031 180.338 151.045 180.352C151.072 180.385 151.099 180.413 151.127 180.447C151.188 180.521 151.235 180.596 151.283 180.677C151.283 180.677 151.283 180.677 151.283 180.684C151.31 180.732 151.33 180.786 151.357 180.833C151.398 180.928 151.432 181.03 151.466 181.132C151.48 181.18 151.493 181.227 151.514 181.275C151.507 181.254 151.5 181.234 151.493 181.22C151.5 181.247 151.514 181.275 151.514 181.295L151.507 181.254Z" fill="#331615"/>
<path d="M151.48 181.186C151.439 181.078 151.459 181.125 151.48 181.186V181.186Z" fill="#331615"/>
<path d="M151.398 182.32C151.398 182.32 151.425 182.286 151.439 182.272C151.439 182.272 151.439 182.272 151.439 182.266C151.439 182.266 151.439 182.252 151.445 182.245C151.418 182.279 151.405 182.306 151.391 182.32H151.398Z" fill="#331615"/>
<path d="M149.843 181.057C149.85 181.003 149.864 180.962 149.843 181.057V181.057Z" fill="#331615"/>
<path d="M148.913 182.361C148.913 182.361 148.913 182.333 148.913 182.313C148.913 182.259 148.899 182.164 148.913 182.361Z" fill="#331615"/>
<path d="M149.945 180.623C149.945 180.63 149.931 180.657 149.924 180.684V180.698C149.938 180.677 149.951 180.63 149.951 180.623H149.945Z" fill="#331615"/>
<path d="M150.026 180.46C150.026 180.46 150.026 180.467 150.019 180.474C150.019 180.48 150.006 180.494 150.006 180.494C150.013 180.48 150.019 180.467 150.026 180.46Z" fill="#331615"/>
<path d="M150.359 180.182C150.359 180.182 150.359 180.182 150.352 180.182C150.346 180.182 150.332 180.182 150.325 180.195C150.325 180.195 150.325 180.195 150.318 180.195C150.318 180.195 150.332 180.195 150.366 180.175L150.359 180.182Z" fill="#331615"/>
<path d="M154.657 197.177C154.657 197.177 154.664 197.164 154.671 197.164C154.684 197.143 154.691 197.13 154.705 197.109C154.705 197.103 154.691 197.116 154.664 197.177H154.657Z" fill="#331615"/>
<path d="M154.026 197.523C154.026 197.523 154.046 197.53 154.053 197.537C154.06 197.537 154.067 197.537 154.073 197.537C154.067 197.523 154.039 197.517 154.026 197.517V197.523Z" fill="#331615"/>
<path d="M155.336 194.001C155.051 193.546 154.61 193.098 154.046 193.044C153.489 192.989 152.987 193.173 152.702 193.675C152.416 194.184 152.43 194.815 152.484 195.379C152.498 195.535 152.525 195.684 152.545 195.833C152.525 195.969 152.505 196.105 152.491 196.241C152.423 197.082 152.661 197.883 153.245 198.494C153.693 198.962 154.311 199.166 154.922 198.915C155.513 198.67 155.825 198.073 155.995 197.489C156.171 196.899 156.083 196.336 155.968 195.745C155.852 195.134 155.648 194.53 155.323 194.001H155.336ZM154.922 195.962C154.922 195.962 154.922 195.969 154.922 195.976C154.922 196.03 154.922 196.091 154.922 196.146C154.922 196.179 154.922 196.22 154.922 196.268C154.922 196.268 154.922 196.268 154.922 196.288C154.922 196.302 154.922 196.322 154.915 196.336C154.908 196.403 154.895 196.478 154.888 196.546C154.868 196.655 154.84 196.756 154.813 196.865C154.813 196.865 154.813 196.879 154.807 196.885C154.779 196.946 154.752 197.007 154.725 197.062C154.718 197.075 154.711 197.089 154.705 197.103C154.705 197.103 154.705 197.123 154.684 197.136C154.684 197.136 154.678 197.15 154.671 197.15C154.664 197.164 154.657 197.177 154.65 197.191C154.65 197.177 154.657 197.177 154.664 197.164C154.644 197.198 154.616 197.225 154.596 197.259C154.596 197.259 154.596 197.259 154.589 197.265C154.576 197.286 154.562 197.306 154.542 197.32C154.508 197.36 154.467 197.394 154.433 197.435C154.426 197.435 154.419 197.449 154.413 197.449C154.372 197.476 154.331 197.496 154.29 197.523C154.29 197.523 154.29 197.523 154.284 197.523C154.27 197.523 154.243 197.53 154.229 197.537C154.229 197.537 154.243 197.537 154.243 197.544C154.243 197.544 154.243 197.544 154.263 197.544C154.257 197.544 154.243 197.55 154.243 197.55C154.243 197.55 154.229 197.55 154.209 197.55C154.182 197.55 154.182 197.55 154.195 197.55C154.161 197.55 154.121 197.537 154.114 197.537C154.1 197.537 154.094 197.537 154.08 197.53C154.08 197.53 154.08 197.53 154.08 197.537C154.08 197.537 154.066 197.537 154.053 197.523C154.053 197.523 154.053 197.523 154.046 197.523C154.012 197.523 154.019 197.517 154.032 197.517C153.999 197.496 153.958 197.476 153.951 197.476C153.931 197.462 153.903 197.449 153.883 197.435C153.883 197.435 153.883 197.435 153.876 197.428C153.815 197.374 153.761 197.32 153.707 197.259C153.707 197.259 153.693 197.245 153.686 197.238C153.659 197.204 153.632 197.17 153.611 197.136C153.611 197.136 153.598 197.109 153.584 197.089C153.598 197.116 153.598 197.13 153.571 197.069C153.571 197.069 153.564 197.055 153.557 197.055C153.557 197.055 153.557 197.055 153.557 197.062C153.544 197.035 153.537 197.001 153.523 196.974C153.516 196.926 153.51 196.879 153.503 196.838C153.557 196.634 153.516 196.424 153.482 196.207C153.482 196.179 153.482 196.159 153.482 196.132C153.482 195.738 153.469 195.311 153.353 194.917C153.353 194.876 153.353 194.836 153.353 194.795C153.353 194.795 153.353 194.795 153.353 194.788C153.36 194.741 153.374 194.686 153.381 194.639C153.381 194.625 153.394 194.591 153.401 194.564C153.408 194.544 153.421 194.517 153.421 194.51C153.421 194.503 153.421 194.51 153.421 194.496C153.449 194.469 153.476 194.435 153.503 194.401C153.503 194.401 153.503 194.401 153.51 194.401C153.537 194.381 153.578 194.367 153.605 194.347C153.611 194.347 153.618 194.347 153.625 194.347C153.679 194.333 153.727 194.327 153.781 194.32C153.808 194.32 153.869 194.32 153.869 194.32C153.91 194.32 153.951 194.32 153.992 194.333C154.046 194.34 154.094 194.354 154.148 194.367C154.148 194.367 154.155 194.367 154.161 194.367C154.175 194.374 154.189 194.381 154.195 194.388C154.202 194.388 154.243 194.415 154.27 194.435C154.29 194.455 154.331 194.483 154.345 194.496C154.365 194.517 154.413 194.578 154.44 194.598C154.453 194.618 154.467 194.632 154.481 194.652C154.515 194.7 154.542 194.747 154.576 194.802C154.576 194.808 154.589 194.822 154.589 194.829C154.589 194.829 154.589 194.829 154.589 194.822C154.589 194.822 154.589 194.829 154.589 194.836C154.589 194.849 154.603 194.856 154.61 194.869C154.623 194.897 154.623 194.91 154.616 194.903C154.65 194.992 154.698 195.08 154.725 195.161C154.745 195.216 154.759 195.263 154.779 195.317C154.779 195.331 154.786 195.345 154.793 195.358C154.813 195.467 154.847 195.582 154.868 195.691C154.888 195.793 154.902 195.894 154.915 195.996L154.922 195.962Z" fill="#331615"/>
<path d="M153.55 197.076C153.55 197.076 153.557 197.09 153.564 197.097C153.564 197.083 153.55 197.076 153.543 197.069C153.543 197.069 153.543 197.069 153.543 197.076H153.55Z" fill="#331615"/>
<path d="M154.617 194.876C154.617 194.876 154.596 194.829 154.589 194.808C154.596 194.849 154.61 194.876 154.617 194.883V194.876Z" fill="#331615"/>
<path d="M164.72 91.3703C164.244 90.6983 163.647 90.3658 163.002 90.2572C163.348 88.8454 162.533 87.1282 162.038 85.859C161.345 84.1147 160.815 82.316 160.198 80.5446C159.43 78.3591 158.806 76.16 158.283 73.9066C157.828 71.9179 157.611 69.8818 157.21 67.8795C156.843 66.0266 156.361 64.0786 155.275 62.4972C155.356 62.2121 155.404 61.9067 155.417 61.6013C155.546 59.1714 154.358 56.6534 153.428 54.4678C152.206 51.59 150.732 48.943 148.716 46.5403C146.543 43.9476 143.983 41.7553 141.022 40.0992C140.201 39.6444 139.352 39.2236 138.435 39.0132C137.526 38.8096 136.609 38.7214 135.679 38.6467C133.94 38.5177 132.202 38.6331 130.464 38.5449C130.084 38.5245 128.855 38.3141 128.773 38.477C128.284 38.4838 127.279 38.6603 127.225 38.6467C126.947 38.5924 126.709 38.6196 126.424 38.6263C126.254 38.6331 124.047 39.4815 123.144 39.658C121.868 39.9023 120.578 40.0381 119.294 40.2349C116.707 40.6422 114.141 41.1308 111.581 41.6806C109.028 42.2304 106.475 42.9566 104.085 44.0087C103.222 44.3887 102.421 44.9385 101.593 45.4272C101.728 44.8299 101.728 44.1919 101.545 43.486C101.335 42.6851 101.015 41.9182 100.757 41.1308C100.336 39.8888 99.9562 38.6263 99.5488 37.3843C98.734 34.9069 97.9124 32.4296 97.1451 29.9386C96.5611 28.0382 95.7531 26.2192 95.1284 24.3391C94.463 22.3301 93.7636 20.1717 93.8247 18.027C93.8791 17.9659 93.9402 17.9048 93.9945 17.8437C95.8686 15.4885 94.8161 12.3189 94.0352 9.75326C93.6414 8.47047 93.2272 7.19446 92.8402 5.90488C92.4328 4.53385 92.0118 3.07458 91.1223 1.92074C89.0921 -0.71272 85.6427 -0.11544 82.8384 0.65831C81.202 1.11306 79.5996 1.6764 77.97 2.16509C76.1367 2.71485 74.2422 3.07458 72.3953 3.58363C67.9207 4.81891 63.4528 6.04741 58.9374 7.14695C54.456 8.2397 49.961 9.28494 45.4999 10.4727C42.5394 11.26 39.5586 12.0066 36.6321 12.9365C33.6716 13.8799 24.8581 16.7849 25.9989 22.3572C26.2772 23.6943 26.2569 25.0789 26.3384 26.4432C26.4266 27.8889 26.5013 29.3481 26.7322 30.7802C26.9155 31.9544 27.1192 33.1965 27.7099 34.2485C28.2871 35.2802 29.1766 35.8979 30.3716 35.9589C30.6433 35.9725 30.9216 35.9522 31.1932 35.9114C31.363 36.658 31.5463 37.4046 31.7161 38.1444C32.042 39.5698 32.3476 41.0087 32.6531 42.4408C33.2506 45.2168 33.9296 47.9656 34.6222 50.7213C35.2809 53.3547 35.5593 56.0696 36.1364 58.7235C36.4216 60.0198 36.7611 61.3569 37.345 62.5515C37.6506 63.1691 37.9765 63.7528 38.4382 64.2076C37.9494 64.2958 37.4537 64.3501 36.9648 64.4384C35.987 64.6148 35.0364 64.8727 34.079 65.1103C32.0556 65.6126 30.005 66.1012 28.0223 66.7596C26.1347 67.3908 24.3013 68.1442 22.339 68.4971C20.9403 68.7551 19.5279 69.0266 18.5502 70.0582C18.5298 70.0582 18.5162 70.0514 18.4958 70.0514C17.6131 70.0039 16.6965 70.5808 15.9292 70.9474C14.2385 71.7483 12.3305 71.9383 10.6737 72.8342C9.0237 73.7234 7.59779 75.0265 6.37558 76.4383C4.02622 79.1464 2.33549 82.5468 1.2423 85.9405C0.149096 89.3477 -0.265098 92.9856 0.155886 96.5422C0.346008 98.1372 0.739831 99.6915 1.21514 101.225C1.54785 102.305 1.99599 103.452 2.85833 104.219C3.14351 104.477 3.46943 104.66 3.80894 104.796C3.36758 105.59 3.47623 106.73 3.59845 107.558C3.72067 108.393 3.97869 109.153 4.29782 109.927C4.61695 110.694 4.86819 111.467 5.133 112.255C6.58607 116.612 7.08854 121.221 8.37186 125.632C8.77247 127.01 9.12556 128.395 9.51938 129.773C9.76382 130.621 10.1576 132.019 10.9453 132.664C10.3274 133.926 10.8978 135.46 11.2848 136.859C11.57 137.89 11.8619 138.908 12.215 139.913C12.4866 140.693 12.8533 141.528 13.5459 142.024C13.573 142.044 13.6002 142.058 13.6274 142.071C14.0823 144.284 14.3335 146.537 14.8156 148.75C15.3452 151.187 16.1601 153.555 16.9341 155.931C18.5094 160.77 19.5143 165.759 20.8316 170.666C22.1421 175.539 23.6767 180.352 25.0143 185.218C25.6729 187.621 26.0939 190.071 26.7118 192.487C27.3229 194.903 27.9136 197.34 28.6062 199.736C29.3735 202.383 30.5821 204.86 31.3562 207.501C32.0692 209.924 33.8074 215.394 33.8074 215.394C33.4272 216.039 33.4068 216.874 33.7327 217.749C34.3303 219.365 35.0907 221.123 36.2994 222.378C36.4148 222.5 36.5438 222.609 36.6728 222.711C36.408 224.74 37.3654 226.919 38.0037 228.785C38.9068 231.439 39.5586 234.188 40.4006 236.869C41.2493 239.57 42.1049 242.285 42.8857 245.007C43.6462 247.674 44.3999 250.376 45.69 252.853C46.3554 254.136 47.1159 255.412 47.9375 256.6C48.603 257.557 49.3159 258.67 50.3276 259.288C50.4906 259.593 50.6875 259.878 50.9116 260.15C52.0184 261.48 53.519 262.654 55.0875 263.482C56.7918 265.152 58.6183 266.74 61.022 267.263C61.7078 267.412 62.3868 267.453 63.0658 267.425C63.0929 268.077 63.2831 268.722 63.575 269.312C62.5362 269.251 61.3004 269.72 60.5942 270.134C58.8016 271.192 58.564 273.127 58.7134 275.02C58.9035 277.41 59.4399 279.744 60.1189 282.045C60.4516 283.179 60.8115 284.299 61.1646 285.425C61.443 286.328 61.6806 287.258 62.0812 288.12C62.4072 288.833 62.8757 289.525 63.6429 289.796C64.3763 290.061 65.2386 290.027 65.9923 289.851C67.7441 289.43 69.0342 288.127 68.7491 286.247C68.6133 285.357 68.2534 284.523 68.0089 283.661C67.8731 283.186 67.7849 282.697 67.7102 282.208C68.3824 283.158 69.4688 283.566 70.6571 283.362C71.7095 283.179 72.4904 282.446 72.8842 281.495C72.9182 281.591 72.9453 281.692 72.9793 281.787C73.3867 282.941 73.8959 284.088 74.6293 285.079C75.2539 285.914 76.0212 286.783 77.1416 286.756C78.2619 286.728 79.2125 285.866 79.7558 284.957C80.4212 283.837 80.3601 282.67 80.0885 281.441C79.7625 279.996 79.2465 278.591 78.7644 277.186C77.6644 273.982 76.7274 270.724 75.4848 267.575C75.1385 266.699 74.6632 265.892 73.6107 265.912C72.9521 265.919 72.3071 266.163 71.7095 266.421C71.0645 266.699 70.6231 267.12 70.1818 267.588C70.0663 267.093 69.9577 266.597 69.8355 266.102C71.4719 265.83 73.0472 265.287 74.5342 264.568C75.2471 264.222 75.9397 263.828 76.6459 263.468C76.8632 263.36 77.0873 263.251 77.3045 263.143C78.1329 262.912 78.9749 262.729 79.8304 262.566C83.1779 261.928 86.5051 261.208 89.7982 260.353C96.4321 258.629 103.209 257.598 109.89 256.091C116.633 254.57 123.266 252.575 129.975 250.919C136.595 249.29 143.202 247.654 149.714 245.625C153.353 244.491 156.999 243.392 160.653 242.306C162.52 241.749 164.387 241.186 166.234 240.561C167.13 240.256 168.027 239.944 168.916 239.611C169.663 239.333 170.491 239.156 171.177 238.729C171.191 238.722 171.197 238.708 171.204 238.702C172.515 238.647 173.852 237.989 175.095 237.758C175.659 237.656 176.222 237.541 176.779 237.419C175.855 238.308 175.496 239.611 175.475 240.874C175.441 242.876 175.862 244.987 176.249 246.941C176.568 248.564 177.03 250.152 177.356 251.767C177.77 253.797 178.28 256.81 180.575 257.543C181.675 257.896 183.107 257.672 183.902 256.797C184.669 255.962 184.818 254.754 184.723 253.668C184.635 252.717 184.411 251.788 184.153 250.871C185.036 251.007 185.952 250.797 186.794 250.498C187.779 250.152 188.777 249.616 189.415 248.76C189.449 248.713 189.47 248.665 189.503 248.625C189.673 249.48 189.891 250.328 190.203 251.136C190.665 252.324 191.391 253.586 192.661 254.041C193.958 254.509 195.859 254.34 196.606 253.036C197.407 251.652 196.762 249.656 196.382 248.238C195.825 246.168 195.227 244.145 194.474 242.136C193.734 240.175 193.136 238.206 192.552 236.197C192.172 234.894 191.785 233.326 190.644 232.457C190.135 232.071 189.537 231.901 188.906 232.037C188.268 232.179 187.86 232.647 187.5 233.156C187.405 232.593 187.256 232.043 186.964 231.595C187.283 231.242 187.602 230.883 187.908 230.523C188.804 229.471 189.646 228.358 190.298 227.129C190.841 226.098 191.16 225.025 191.439 223.899C191.636 223.111 191.975 221.937 191.439 221.204C192.457 219.67 192.342 217.315 192.179 215.632C191.934 213.127 191.71 210.602 191.405 208.105C191.038 205.078 190.536 202.064 189.809 199.105C189.055 196.044 188.125 193.057 187.514 189.962C187.256 188.646 186.957 187.349 186.638 186.046C186.394 185.035 186.108 183.956 186.095 182.89C186.4 182.68 186.686 182.435 186.916 182.157C188.139 180.684 187.48 178.743 186.916 177.148C186.441 175.804 186 174.257 184.54 173.693C184.499 173.68 184.458 173.666 184.418 173.652C184.431 173.076 184.194 172.505 183.99 171.969C183.637 171.033 183.413 170.15 183.291 169.152C183.141 167.91 182.836 166.743 182.557 165.521C182.258 164.252 182.021 162.969 181.715 161.693C181.423 160.478 180.968 159.324 180.642 158.123C180.31 156.895 180.16 155.625 179.977 154.37C179.604 151.797 178.796 149.32 178.191 146.795C176.989 141.759 176.052 136.669 174.762 131.646C173.452 126.556 172.033 121.499 170.709 116.415C169.975 113.599 169.276 110.775 168.481 107.979C167.714 105.277 167.083 102.529 166.248 99.8476C166.777 98.6191 166.519 97.1327 166.207 95.877C165.84 94.3974 165.616 92.6191 164.72 91.3499V91.3703ZM128.99 49.0584C128.407 46.4113 129.303 43.072 127.476 40.7779C127.381 40.6625 127.286 40.5811 127.198 40.5404C127.218 40.425 127.266 40.3232 127.361 40.2417C127.741 39.8888 128.345 39.7598 128.977 39.7259C129.201 40.7304 129.425 41.7349 129.649 42.7394C129.941 44.0765 130.342 45.3933 130.946 46.6218C131.075 46.8865 131.333 46.6014 131.252 46.391C130.742 45.0743 130.498 43.6964 130.219 42.3186C130.05 41.4498 129.887 40.5675 129.636 39.7123C130.084 39.7259 130.511 39.7598 130.851 39.7734C133.859 39.9023 136.867 39.8548 139.658 41.1784C142.442 42.4951 144.974 44.5856 147.12 46.7711C149.272 48.9702 151.099 51.5561 152.104 54.4746C152.796 56.4701 153.767 58.4248 154.066 60.5357C154.087 60.6986 154.107 60.8682 154.12 61.0311C152.973 61.1194 151.825 61.2755 150.678 61.3094C149.49 61.3501 148.322 61.2144 147.161 60.9904C145.056 60.5832 143.039 59.8637 141.09 58.9678C140.133 58.5266 139.176 58.0787 138.327 57.4475C137.458 56.7959 136.738 55.9882 136.066 55.1398C134.762 53.5041 133.825 51.6376 132.773 49.8389C132.698 49.71 132.555 49.8864 132.616 49.9882C133.696 51.848 134.511 53.8638 135.733 55.642C137.03 57.5221 138.87 58.5266 140.9 59.4497C142.883 60.3456 144.934 61.0787 147.072 61.4791C148.24 61.6963 149.442 61.8728 150.624 61.9135C151.751 61.9542 152.878 61.8931 154.012 61.866C153.924 62.0696 153.774 62.2461 153.53 62.375C152.538 62.918 151.289 63.0334 150.182 63.1013C149.069 63.1691 147.948 63.2031 146.828 63.2031C145.327 63.2031 143.983 63.047 142.537 62.6194C139.692 61.7777 136.989 60.1488 134.633 58.3637C133.221 57.2981 131.768 56.0493 130.905 54.4814C129.968 52.7914 129.425 50.9249 129.011 49.0516L128.99 49.0584ZM30.0118 31.778C29.4278 30.8074 29.2377 29.8165 29.068 28.6423C28.6809 25.9884 28.6809 23.2871 28.1717 20.6536C28.0562 20.0699 28.613 18.0948 29.1426 17.7419C30.3649 16.9478 31.7025 16.3166 33.0469 15.76C35.858 14.5994 38.7981 13.7985 41.7314 13.0247C49.6962 10.9207 57.7288 9.10168 65.6935 7.0112C67.812 6.45464 69.9102 5.837 72.0219 5.2533C73.9027 4.73068 75.8107 4.3438 77.6848 3.81439C79.2058 3.38001 80.7064 2.88454 82.2273 2.47051C83.66 2.08364 85.1606 1.68319 86.6612 1.77142C89.8594 1.95468 90.7353 5.02932 91.5976 7.59491C92.4328 10.0994 93.492 12.6039 93.8859 15.2306C94.4155 18.7396 89.8322 18.5021 87.5439 18.7736C86.444 18.9025 85.6427 19.0993 84.6378 19.0586C84.631 19.0586 84.631 19.0586 84.6242 19.0586C84.6106 19.0586 84.6106 19.0586 84.5971 19.0586C84.5156 19.045 84.4273 19.0315 84.3458 19.0111C84.2644 18.984 84.1829 18.9568 84.1014 18.9229C84.0946 18.9229 84.0878 18.9229 84.081 18.9229C84.0674 18.9161 84.0606 18.9025 84.0403 18.8889C83.6261 18.5564 83.3884 18.2509 83.0489 17.769C82.3224 16.7509 81.8946 15.6921 81.4329 14.5451C81.0323 13.5541 80.4212 12.9433 79.3891 12.6379C76.4558 11.7623 73.5157 13.1333 70.6639 13.7645C66.4744 14.6876 62.2646 15.4885 58.143 16.6966C56.2961 17.2396 54.4492 17.8301 52.5684 18.2713C51.3054 18.5699 50.0221 18.7871 48.7523 19.045C46.2061 19.5541 43.6394 20.3075 41.4327 21.7328C40.5635 22.2962 39.8166 23.0495 39.4228 24.0201C38.9679 25.1468 39.0833 26.3821 39.287 27.5563C39.4296 28.3776 39.8302 29.3074 39.7487 30.149C39.7351 30.2712 39.6944 30.3866 39.6469 30.4952C39.3481 30.4477 38.9271 30.8006 38.9882 31.1264C38.9882 31.14 38.9882 31.1468 38.9882 31.1603C38.6419 31.3775 38.2345 31.5472 37.9018 31.6965C37.0666 32.0698 35.9667 32.4228 34.9617 32.6264C33.7803 32.8639 32.558 32.8368 31.363 32.8164C31.2883 32.8164 31.2068 32.8096 31.1321 32.8029C31.0914 32.7961 31.0507 32.7825 31.0235 32.7757C30.9895 32.7621 30.9216 32.7214 30.8809 32.7078C30.8266 32.6739 30.7791 32.6332 30.7247 32.5992C30.5754 32.4906 30.4396 32.3753 30.3037 32.2463C30.2698 32.2056 30.2019 32.1241 30.1883 32.1038C30.1272 32.0087 30.0593 31.9137 29.9982 31.8119L30.0118 31.778ZM93.7772 23.2803C94.334 25.2079 95.0062 27.1015 95.563 29.0291C96.8735 33.5698 97.6951 38.253 99.0803 42.7734C99.3111 43.52 99.6235 44.3073 99.6506 45.0946C99.6642 45.5969 99.542 46.0516 99.3315 46.4724C99.1414 46.296 98.8154 46.4114 98.6593 46.6218C98.4216 46.4521 98.1704 46.3028 97.9124 46.1534C97.9056 46.1263 97.8988 46.0991 97.892 46.072C97.729 45.4747 97.5932 44.8706 97.4506 44.2734C97.1587 43.0584 96.8599 41.8503 96.5476 40.6422C95.9229 38.2191 95.305 35.7893 94.7007 33.3594C94.0964 30.9228 93.5056 28.4861 92.8606 26.0631C92.2834 23.8979 91.7674 21.7124 91.1223 19.5677C91.7809 19.3708 92.426 19.1197 92.9964 18.7464C93.0032 20.2871 93.363 21.8143 93.7908 23.2803H93.7772ZM39.5858 40.7168C39.5179 40.4453 39.2327 40.5947 39.287 40.8322C40.258 44.8231 41.3104 48.8005 42.1049 52.8321C42.4987 54.8276 42.8314 56.8366 43.2728 58.8253C43.4833 59.7823 43.7141 60.7393 43.9246 61.6963C44.0332 62.1918 44.1283 62.7144 44.2369 63.2302C43.1438 63.1691 41.9147 63.7053 40.8555 63.332C40.7808 63.3049 40.7061 63.271 40.6382 63.2302C40.5907 63.0334 40.5228 62.8298 40.4685 62.6262L40.1425 61.3977C39.8981 60.4746 39.6469 59.5515 39.3956 58.6352C39.1512 57.7529 38.9203 56.8638 38.6691 55.9814C38.4111 55.0923 38.0173 54.2439 37.6845 53.3751C37.6574 53.3072 37.5555 53.3887 37.5623 53.443C37.7117 54.366 37.8068 55.3027 38.024 56.2122C38.2481 57.142 38.5129 58.0651 38.7506 58.9882C38.9747 59.8366 39.1987 60.6782 39.4228 61.5266C39.4975 61.7981 39.5722 62.0764 39.6469 62.3479C39.3821 62.0017 39.1512 61.6216 38.9543 61.3026C38.3092 60.2506 37.7796 59.185 37.3722 58.0176C36.5167 55.6013 36.1772 53.0425 35.6272 50.5516C35.0364 47.8842 34.4049 45.2236 33.8278 42.5494C33.5019 41.0562 33.1827 39.563 32.85 38.0698C32.6735 37.2757 32.4969 36.468 32.2932 35.6739C32.6531 35.5585 33.0062 35.416 33.3525 35.2734C33.4679 35.6739 33.5222 36.0947 33.5901 36.4748C33.7192 37.2485 33.8278 38.0291 33.9704 38.8028C34.1333 39.6784 34.3846 40.5336 34.5611 41.4023C34.7648 42.4136 34.8802 43.5539 35.3691 44.477C35.4438 44.6195 35.5864 44.477 35.5796 44.3616C35.5117 43.2553 35.1926 42.1557 34.9821 41.0698C34.7988 40.1195 34.6154 39.1693 34.5475 38.1987C34.4796 37.2214 34.4864 35.9657 34.1333 34.9341C34.2691 34.873 34.4049 34.8187 34.534 34.7644C35.5185 34.3504 36.5302 33.9771 37.4876 33.4952C37.6302 33.9092 37.7253 34.3368 37.8068 34.7576C37.9494 35.4703 38.0852 36.1897 38.3092 36.882C38.4179 37.2214 38.7302 36.9159 38.6759 36.6648C38.445 35.5313 38.4314 34.3028 38.024 33.2169C38.4382 32.9861 38.8728 32.735 39.2734 32.4363C39.7623 34.7712 40.3395 37.0992 40.8351 39.434C41.4191 42.1897 42.0302 44.9385 42.6617 47.6806C43.2524 50.2665 43.9246 52.8525 44.6511 55.4045C44.9363 56.4022 45.2826 57.3796 45.5678 58.3705C45.8122 59.2122 45.9413 60.0063 45.9888 60.8547C45.9616 60.9158 45.948 60.9836 45.9616 61.0583C45.9956 61.2008 46.0159 61.3434 46.0092 61.4927C46.0092 61.6895 46.0906 61.7981 46.2129 61.8524C46.1382 61.9271 46.0635 62.0017 45.9888 62.0764C45.7511 62.3207 45.3777 62.7212 45.0789 63.1623C44.9024 62.5515 44.6919 61.9406 44.5221 61.3366C44.2505 60.3524 44.0197 59.3479 43.7956 58.3502C43.3542 56.4158 43.0079 54.4611 42.5938 52.5131C41.7518 48.5426 40.5635 44.667 39.579 40.7304L39.5858 40.7168ZM46.3419 63.556C46.4166 63.5017 46.4845 63.4474 46.5388 63.3863C46.9258 62.9723 47.2449 62.5176 47.5437 62.0424C48.0122 61.5402 48.4875 61.0447 48.8338 60.4407C49.1665 59.8569 49.377 59.3072 49.4925 58.6963C50.1104 57.8004 50.8844 57.047 51.8418 56.5108C52.8264 55.9611 53.906 55.6013 54.9449 55.1737C59.1683 53.443 63.6158 52.2959 67.9954 51.0199C72.5108 49.71 77.1891 49.1059 81.6909 47.7688C85.6631 46.5946 90.2328 45.1557 94.2661 46.8525C95.2303 47.2598 96.2081 47.762 97.0568 48.3797C97.3148 48.5697 97.6272 48.8073 97.7834 49.0991C97.8716 49.2688 97.9192 49.5403 97.9124 49.5674C97.7766 50.0425 96.629 50.6738 96.1741 50.952C95.2642 51.5154 94.2797 51.9905 93.2951 52.4181C91.2513 53.3072 89.1328 53.9113 86.8921 53.6534C85.8396 53.5312 84.8551 53.4362 83.8026 53.5108C82.7909 53.5855 81.7656 53.4633 80.7743 53.2733C78.8662 52.9068 76.9175 52.6692 74.9891 53.0086C72.7213 53.409 70.5281 54.1964 68.267 54.6443C66.4337 55.0108 64.3355 54.9973 62.6652 55.9203C61.8775 56.3615 61.2528 56.9791 60.7368 57.7122C60.2479 58.4045 60.0578 59.0968 59.8201 59.8909C59.7522 60.1216 59.7183 60.4135 59.5825 60.6103C59.3584 60.9361 58.8763 61.133 58.53 61.3094C57.5726 61.7981 56.5134 62.0628 55.4745 62.3139C53.4646 62.7958 51.4276 63.1488 49.3974 63.5221C48.5147 63.685 47.4419 63.9293 46.5456 63.7596C46.4573 63.7461 46.3758 63.7121 46.2943 63.6918C46.2943 63.6918 46.2876 63.6918 46.2808 63.6918C46.3011 63.6714 46.3215 63.6103 46.3487 63.5424L46.3419 63.556ZM40.1969 31.5811C40.3666 31.3843 40.5228 31.1739 40.645 30.9431C41.0592 30.1626 40.9302 29.321 40.7333 28.5065C40.4549 27.3595 40.0814 26.1581 40.1697 24.9635C40.3462 22.5337 43.2592 21.7667 45.2555 21.5631C46.6542 21.4206 48.053 21.1627 49.4517 20.9794C50.7215 20.8097 51.9844 20.6197 53.2202 20.3007C55.427 19.7238 57.6405 19.1333 59.8269 18.4817C62.0609 17.8165 64.2337 16.9885 66.4812 16.3709C68.3552 15.8618 70.2565 15.4614 72.1034 14.8709C73.6651 14.3686 75.2675 13.6627 76.9311 13.6016C78.0175 13.5609 79.457 13.7917 79.8236 14.9727C80.2039 16.2012 80.1156 17.4908 80.6113 18.7057C81.073 19.8324 81.5891 21.0677 82.7977 21.5563C82.9946 21.6378 83.1983 21.6717 83.4088 21.6853C83.5039 21.9704 83.6193 22.2486 83.7076 22.5405C83.8977 23.1649 84.0063 23.8097 84.1489 24.4477C84.4409 25.7441 84.8347 27.0133 85.1606 28.2961C85.6835 30.3391 86.2742 32.3685 87.0075 34.3504C88.0328 37.1128 89.1057 39.8548 89.8797 42.6987C90.0495 43.3367 90.2328 43.9951 90.3143 44.6602C90.3143 44.6942 90.3143 44.7349 90.3143 44.7688C89.0921 44.8299 87.8767 44.9792 86.6748 45.1896C81.881 46.0313 77.1144 47.2258 72.3953 48.3932C69.8694 49.0177 67.5065 49.9679 65.0689 50.857C62.7195 51.7122 60.2954 52.3706 57.9461 53.2394C56.8189 53.6602 55.7257 54.1353 54.6122 54.5764C53.5325 55.0108 52.4393 55.4045 51.4208 55.9746C50.5585 56.4497 49.7573 57.0334 49.119 57.78C48.9764 57.8343 48.8474 57.9361 48.7999 58.038C48.7591 58.1466 48.7048 58.2484 48.6641 58.357C48.182 59.0289 47.7746 59.7484 47.374 60.461C47.3468 60.5085 47.3196 60.5492 47.2925 60.5968C47.3672 58.8049 46.3894 56.8638 45.8326 55.2552C44.9703 52.7778 44.1962 50.2054 43.653 47.6331C43.0555 44.8163 42.6073 41.9725 42.0166 39.1557C41.487 36.6309 40.9845 34.0449 40.2037 31.5744L40.1969 31.5811ZM93.2544 44.796C93.0778 44.7824 92.8945 44.7756 92.718 44.762C92.6297 44.4362 92.5143 44.1105 92.4192 43.7847C92.2087 43.0992 91.9982 42.4204 91.7877 41.7349C91.36 40.3707 90.9186 39.0132 90.484 37.6558C89.581 34.839 88.7186 32.0427 88.1618 29.1377C88.1075 28.8594 87.8088 29.0699 87.8495 29.2803C88.3791 32.1038 89.0853 34.9205 89.8729 37.6829C90.2668 39.0675 90.681 40.4521 91.0884 41.8367C91.2921 42.529 91.4958 43.2213 91.6859 43.9136C91.7538 44.1648 91.8081 44.443 91.8692 44.7213C91.747 44.7213 91.6316 44.7145 91.5093 44.7145C91.5365 44.2462 91.4211 43.7575 91.3192 43.3096C90.9526 41.7824 90.3686 40.3028 89.805 38.8367C88.5489 35.5721 87.3199 32.3753 86.4847 28.9748C86.2742 28.1196 86.0705 27.2576 85.9143 26.3957C85.7717 25.6016 85.7582 24.8074 85.6903 23.9998C85.6359 23.2939 85.5341 22.2011 85.1946 21.3188C85.3847 21.2441 85.568 21.1695 85.7446 21.0948C85.989 22.7034 86.8785 24.1966 86.9193 25.8527C86.9193 26.1174 87.2859 26.1988 87.2995 25.8934C87.347 24.8685 87.1162 23.8436 86.7903 22.8799C86.573 22.2351 86.3625 21.5699 86.2335 20.898C86.7495 20.6808 87.2656 20.4636 87.8156 20.3143C88.6032 20.1039 89.4044 19.9749 90.1989 19.7916C90.3618 19.7509 90.5316 19.7102 90.7013 19.6695C91.2174 21.8821 91.8421 24.0744 92.3921 26.2871C92.9896 28.7169 93.6346 31.14 94.2593 33.5698C94.884 35.9929 95.4883 38.4227 96.1062 40.8458C96.4185 42.0539 96.7173 43.2688 97.0025 44.4838C97.1111 44.9317 97.213 45.3865 97.3148 45.8344C96.0247 45.2304 94.5581 44.8978 93.2612 44.7892L93.2544 44.796ZM21.3477 78.2505C23.5816 78.4405 25.9106 77.3342 27.9408 76.5672C30.7723 75.4948 33.787 75.0944 36.7339 74.4835C43.4765 73.0786 49.9678 70.7505 56.5337 68.7076C60.0714 67.608 63.5411 66.3049 67.0923 65.2325C67.1941 65.1985 67.1398 65.0017 67.038 65.0221C63.8331 65.6261 60.7979 66.97 57.722 68.022C54.5307 69.1148 51.2782 70.0379 48.053 70.9949C44.8005 71.9654 41.5209 72.8682 38.2142 73.6351C35.1247 74.3478 31.8926 74.4632 28.8507 75.3523C27.5334 75.7324 26.2705 76.2482 24.9736 76.6894C23.7785 77.0966 22.4748 77.5242 21.1915 77.4021C21.1575 77.4021 21.1304 77.4088 21.1032 77.4156C20.7162 76.2075 20.3088 74.9994 19.9761 73.7709C19.8131 73.16 19.6705 72.5424 19.5551 71.9247C19.5347 71.8297 19.5211 71.7415 19.5076 71.6532C19.5415 71.4293 19.5483 71.2053 19.5143 70.9949C19.5143 70.9677 19.5211 70.9406 19.5279 70.9202C20.6075 70.2686 22.0878 70.1261 23.2421 69.8275C25.1094 69.3388 26.8951 68.4157 28.6402 67.6012C30.4871 66.7392 32.4155 66.0469 34.4253 65.6601C35.3488 65.4836 36.2926 65.3614 37.2228 65.2393C37.7185 65.1782 38.221 65.1035 38.7166 65.0899C39.2259 65.0764 39.674 65.28 40.1765 65.2528C40.3055 65.2528 40.4074 65.1917 40.4753 65.1035C41.0117 65.1442 41.5685 65.0899 42.0913 65.0085C42.9401 64.8727 43.8431 64.866 44.6783 64.7031C44.719 64.7777 44.7598 64.832 44.8073 64.8592C44.8752 64.9474 44.9567 65.0288 45.0721 65.1035C45.7443 65.5311 46.7696 65.4022 47.5166 65.3275C48.5962 65.2189 49.6962 65.0221 50.7486 64.7574C51.8214 64.4859 52.8807 64.1804 53.9603 63.9497C55.0875 63.7053 56.2214 63.4542 57.3214 63.0945C59.1208 62.5108 61.3886 61.6963 62.0405 59.7144C62.2646 59.0221 62.217 58.2008 62.5497 57.5628C63.0047 56.7009 64.1454 56.314 65.0349 56.1104C66.1009 55.8728 67.1941 55.7574 68.267 55.5267C69.5163 55.2552 70.7453 54.909 71.9811 54.5832C73.2169 54.2507 74.4663 53.8638 75.7428 53.7552C76.8157 53.6602 77.8885 53.7416 78.9545 53.8977C80.0002 54.0538 81.0459 54.2439 82.044 54.6036C82.4921 54.7665 82.9267 54.9565 83.3681 55.1466C83.8841 55.3773 84.3526 55.4384 84.9162 55.4791C86.118 55.5674 87.2452 55.2416 88.4131 55.004C89.5538 54.7733 90.6742 54.4678 91.7742 54.1013C93.9606 53.3683 96.1266 52.3231 98.0753 51.1014C99.121 50.443 100.37 49.3095 99.9969 48.115C100.058 48.0742 100.112 48.0267 100.153 47.9792C100.486 47.6059 100.771 47.2326 101.009 46.8457C101.138 46.7846 101.267 46.7168 101.389 46.6557C102.231 46.2213 103.025 45.6919 103.874 45.2643C106.217 44.0901 108.872 43.486 111.37 42.7462C114.018 41.9657 116.694 41.2937 119.423 40.8729C120.686 40.6761 121.949 40.5811 123.219 40.4385C124.19 40.3299 125.181 40.0652 126.159 39.9499C126.016 40.4046 126.023 40.9069 126.125 41.382C126.2 41.7146 126.308 42.0471 126.397 42.3797C126.499 42.7598 126.709 43.0584 126.838 43.4249C126.886 43.5607 126.994 43.6082 127.096 43.5878C127.259 44.3616 127.286 45.1964 127.368 45.9023C127.408 46.2552 127.449 46.6014 127.503 46.9475C127.476 46.9543 127.449 46.9543 127.415 46.9747C125.256 48.2711 122.676 48.7597 120.258 49.3231C117.312 50.0086 114.446 51.1081 111.547 51.9769C105.151 53.8841 98.7679 55.8117 92.3785 57.7257C88.7797 58.8049 85.181 59.918 81.5823 60.9972C81.5347 61.0108 81.5483 61.1126 81.6026 61.099C88.1822 59.5312 94.6667 57.5968 101.144 55.6556C107.317 53.8027 113.448 51.9294 119.77 50.6602C122.384 50.1308 125.494 49.7439 127.7 48.115C127.829 48.7801 127.979 49.4317 128.189 50.0968C128.732 51.8208 129.289 53.5584 130.165 55.1466C131.027 56.7076 132.066 58.0719 133.35 59.3004C134.518 60.4203 135.835 61.4248 137.274 62.185C138.707 62.9452 140.276 63.4474 141.83 63.8818C143.365 64.3162 145.001 64.6691 146.577 64.8863C147.758 65.0492 148.953 65.1782 150.148 65.1375C151.411 65.0967 152.837 64.9949 153.944 64.3365C154.365 64.0854 154.677 63.7528 154.915 63.3728C155.804 65.3207 156.361 67.3705 156.762 69.4949C157.244 72.0062 157.712 74.5107 158.283 77.0016C158.914 79.7369 159.22 82.5875 160.055 85.2753C160.34 86.2052 160.761 87.0943 161.094 88.0038C161.264 88.4653 161.427 88.9404 161.528 89.4223C161.596 89.7277 161.596 90.0332 161.617 90.3318C161.182 90.4201 160.754 90.5626 160.333 90.7391C158.826 91.3703 157.454 92.2526 156.056 93.0807C156.11 91.3363 155.431 89.6802 154.888 88.0309C154.154 85.7979 153.91 83.4427 153.258 81.1826C152.885 79.8862 152.45 78.617 152.145 77.3002C151.88 76.16 151.798 74.9858 151.561 73.8455C151.099 71.6193 150.101 69.4677 150.074 67.1736C150.074 66.9497 149.782 66.8343 149.775 67.1125C149.693 69.1759 150.461 71.1306 150.997 73.0921C151.289 74.1713 151.472 75.2709 151.764 76.35C152.111 77.6464 152.437 78.9428 152.722 80.2527C153.238 82.6011 153.428 85.0106 154.005 87.3454C154.494 89.3069 155.601 91.3635 155.288 93.4336C155.288 93.4675 155.288 93.5015 155.288 93.5354C154.874 93.773 154.46 93.9969 154.032 94.2074C152.701 94.8589 151.255 95.239 149.836 95.6463C148.383 96.0603 146.943 96.5218 145.504 96.963C144.119 97.3906 142.74 97.8182 141.308 98.0761C139.868 98.334 138.435 98.5444 137.03 98.9585C136.813 98.1915 136.595 97.4245 136.351 96.6643C136.052 95.7277 135.685 94.8114 135.427 93.868C135.244 93.1893 135.088 92.5105 134.789 91.8725C134.341 90.8884 133.886 90.1961 132.854 89.7888C131.693 89.3341 130.274 89.6259 129.058 89.7074C127.171 89.8431 125.242 90.0943 123.484 90.8341C122.221 91.3635 121.229 92.0558 120.904 93.4404C120.625 94.6214 120.822 95.8838 121.039 97.0648C121.236 98.11 121.854 100.886 122.295 102.834C120.836 103.547 119.063 103.662 117.495 103.92C115.234 104.3 113.027 105.006 110.78 105.474C108.335 105.983 105.904 106.404 103.501 107.09C101.09 107.782 98.7204 108.583 96.3506 109.404C91.584 111.053 86.702 112.262 81.881 113.734C76.999 115.228 72.0015 116.286 67.1127 117.759C64.4713 118.553 61.8504 119.409 59.1683 120.053C58.014 120.332 56.88 120.691 55.7325 120.997C55.1825 121.139 54.6257 121.275 54.0757 121.39C53.7906 121.445 53.5054 121.499 53.2202 121.533C53.1727 121.533 53.0097 121.567 52.8332 121.594C52.5616 120.393 52.2968 119.185 51.9505 117.997C51.5023 116.449 51.4548 114.562 50.4838 113.232C49.4381 111.8 47.632 112.248 46.1789 112.628C44.461 113.076 42.5666 113.341 40.9709 114.142C37.9561 115.655 38.9747 118.954 39.7487 121.519C40.0407 122.483 40.2851 123.447 40.5296 124.418C38.3092 125.524 35.9802 126.332 33.5494 126.841C32.3 127.099 31.0439 127.336 29.7741 127.485C28.4433 127.641 27.16 128.049 25.8766 128.415C24.5526 128.795 23.2421 129.209 21.9248 129.589C20.5396 129.99 19.0594 130.519 17.6131 130.594C17.2804 130.614 16.9341 130.621 16.581 130.628C15.6101 128.782 15.4471 126.637 14.8835 124.642C14.1502 122.028 12.9144 119.578 12.086 116.992C11.6311 115.567 11.278 114.114 10.9181 112.662C10.6194 111.461 10.2663 110.266 10.0762 109.044C9.85209 107.565 9.8453 105.8 9.21383 104.375C10.0218 104.151 10.8231 103.9 11.6039 103.669C12.4731 103.411 13.3558 103.16 14.1977 102.82C14.999 102.495 15.7459 101.986 16.4384 101.477C17.7421 100.513 18.8965 99.1553 19.8471 97.8453C20.7705 96.5761 21.5174 95.1779 22.0267 93.6915C22.5767 92.1033 22.6242 90.4676 22.5902 88.8047C22.5291 85.2753 22.3322 81.6848 21.3612 78.2776L21.3477 78.2505ZM121.705 93.3454C121.854 92.8092 122.153 92.3544 122.73 92.0422C124.149 91.2617 125.792 90.9291 127.395 90.7594C128.739 90.6169 130.206 90.4268 131.489 90.9359C132.229 91.2277 132.691 91.7843 133.119 92.4495C133.377 92.8499 133.587 93.2843 133.825 93.6983C134.26 94.4517 134.694 95.1372 134.993 95.9653C135.563 97.5671 136.025 99.2096 136.473 100.852C137.397 104.259 138.408 107.66 138.863 111.169C138.951 111.841 139.101 112.492 139.25 113.151C139.427 113.931 139.698 114.861 139.488 115.662C139.223 116.673 137.831 117.175 136.948 117.501C135.061 118.207 132.752 118.58 130.756 118.228C129.758 118.051 129.072 117.671 128.481 116.836C128.176 116.402 127.904 115.933 127.66 115.458C127.374 114.909 127.035 114.386 126.763 113.836C125.337 110.924 124.299 107.877 123.653 104.694C122.913 101.029 122.411 97.3227 121.956 93.6169C121.929 93.42 121.827 93.3522 121.705 93.3589V93.3454ZM124.658 111.678C124.217 112.017 123.64 112.214 123.137 112.384C122.336 112.648 121.515 112.838 120.693 113.015C118.894 113.409 117.121 113.857 115.342 114.332C110.474 115.635 105.606 116.904 100.71 118.105C95.7328 119.327 90.7624 120.61 85.8396 122.049C81.0323 123.454 76.2657 124.981 71.4447 126.325C66.0534 127.832 60.5467 128.829 55.1418 130.282C54.6461 128.592 54.1912 126.881 53.7023 125.191C53.4307 124.241 53.2066 123.284 52.9893 122.32C53.906 122.3 54.8294 122.11 55.7054 121.886C58.0004 121.302 60.3158 120.691 62.5905 120.033C65.1367 119.293 67.6491 118.465 70.2089 117.766C72.8095 117.053 75.4101 116.361 77.9903 115.594C80.5502 114.834 83.0897 114.026 85.6631 113.32C88.2705 112.601 90.8914 111.943 93.4988 111.223C98.571 109.825 103.548 108.121 108.729 107.151C111.588 106.614 114.344 105.854 117.155 105.148C118.187 104.891 119.247 104.728 120.286 104.497C121.039 104.327 121.834 104.144 122.499 103.73C122.601 104.171 122.683 104.517 122.73 104.707C123.307 107.049 124 109.363 124.665 111.678H124.658ZM41.6296 124.893C41.5617 124.608 41.487 124.323 41.4191 124.031C41.1203 122.741 40.7197 121.465 40.4753 120.162C40.2512 118.974 39.9932 117.664 40.1629 116.456C40.387 114.909 42.3289 114.61 43.6123 114.352C44.9771 114.074 46.4505 113.524 47.8561 113.666C49.4381 113.829 49.7097 115.458 49.9678 116.768C50.3412 118.621 51.0338 120.379 51.6381 122.164C52.3307 124.207 52.9825 126.243 53.5869 128.32C54.0554 129.942 54.4967 131.571 54.9585 133.193C55.5696 135.338 56.5813 138.63 54.2387 140.069C52.9961 140.829 51.5838 141.25 50.1375 141.325C48.99 141.386 47.7406 141.264 46.9666 140.327C46.0771 139.248 45.6289 137.843 45.1943 136.533C45.0042 135.956 44.8616 135.352 44.6308 134.788C44.3388 134.062 43.9314 133.424 43.6462 132.691C43.4357 131.89 43.2049 131.089 42.9944 130.295C42.7499 129.379 42.5055 128.463 42.2678 127.54C42.132 126.929 41.9894 126.311 41.8401 125.707C41.7722 125.436 41.6907 125.164 41.616 124.886L41.6296 124.893ZM15.7119 130.621C14.4354 130.669 13.1385 130.811 12.086 131.469C11.9095 131.239 11.7194 131.015 11.57 130.764C11.2916 130.282 11.0811 129.759 10.8978 129.236C10.5447 128.218 10.2663 127.173 9.86567 126.169C8.80642 123.542 8.0731 120.854 7.44841 118.099C7.06138 116.402 6.71508 114.698 6.19225 113.042C5.71015 111.522 5.35028 110.049 5.18053 108.467C5.09226 107.66 4.90214 106.872 4.85461 106.058C4.84103 105.759 4.83424 105.352 4.89535 105.047C5.22127 105.074 5.55398 105.067 5.87991 105.033C6.85767 104.924 7.84902 104.7 8.82679 104.443C9.56691 106.112 9.45148 108.23 9.81135 109.954C10.083 111.257 10.4836 112.54 10.8163 113.829C11.1558 115.139 11.4953 116.456 11.8891 117.752C12.6971 120.399 13.9125 122.945 14.4965 125.653C14.836 127.214 14.9854 129.108 15.6983 130.628L15.7119 130.621ZM3.05524 102.705C4.82745 101.762 6.85767 101.334 8.67741 100.479C10.9996 99.386 12.9823 97.7707 14.9107 96.1078C14.9446 96.0806 14.9378 95.9788 14.8767 96.0128C12.799 97.4652 10.7823 99.0942 8.35149 99.9087C6.40953 100.56 4.29103 100.811 2.49846 101.857C2.30154 101.456 2.13858 101.029 2.00278 100.628C-0.156457 94.411 0.909583 87.3047 4.08733 81.6237C5.03115 79.9405 6.19225 78.4609 7.54347 77.0966C8.92185 75.7052 10.5379 74.4632 12.4187 73.8455C13.607 73.4586 14.7817 73.1396 15.936 72.7053C15.9699 73.1464 16.031 73.5876 16.1329 74.022C16.2891 74.6804 16.4792 75.3251 16.6354 75.9835C16.9545 77.3274 17.2397 78.6781 17.5384 80.0287C17.5724 80.1848 17.7557 80.1034 17.7489 79.9677C17.7014 78.6034 17.3687 77.2663 17.1107 75.936C16.8866 74.7754 16.778 73.5808 16.7033 72.3931C16.7644 72.3659 16.8323 72.3455 16.8934 72.3116C17.3144 72.1216 17.7897 71.8772 18.2514 71.8229C18.2378 71.9247 18.231 72.0333 18.2174 72.0808C18.136 72.4134 18.2718 72.7528 18.489 72.9021C18.6316 73.8116 18.9032 74.7211 19.1545 75.6034C19.46 76.6622 19.7995 77.7007 20.139 78.7459C20.5396 79.9812 20.7433 81.0197 21.0421 82.3839C21.4495 84.2301 21.6532 86.0898 21.7551 87.9698C21.8298 89.4223 21.4699 90.7458 20.9946 92.1033C20.5057 93.5015 19.9082 94.8182 19.039 96.0263C18.6588 96.5557 18.2514 97.058 17.81 97.5263C17.294 98.0761 16.6422 98.4833 16.031 98.9245C13.1724 100.995 9.91999 102.549 6.49101 103.404C5.50645 103.648 4.34535 103.757 3.47622 103.119C3.31326 102.997 3.17746 102.861 3.04166 102.712L3.05524 102.705ZM12.5477 138.04C12.249 137.123 12.0113 136.18 11.8823 135.216C11.7805 134.476 11.7873 133.988 12.4119 133.506C13.0298 133.031 13.8582 132.847 14.6051 132.698C15.1144 132.596 15.6372 132.535 16.1465 132.406C16.8051 132.236 17.423 131.945 18.0681 131.741C19.3174 131.341 20.6279 131.096 21.8909 130.723C23.1674 130.35 24.4439 129.963 25.7205 129.555C28.3278 128.734 30.9013 127.832 33.5698 127.227C35.9667 126.684 38.5265 126.332 40.6925 125.123C40.7944 125.544 40.8962 125.965 40.9981 126.386C41.3987 128.022 41.8333 129.651 42.2678 131.279C42.3493 131.938 42.424 132.596 42.4919 133.255C42.4919 133.302 42.4919 133.35 42.4987 133.397C41.6703 133.621 40.9098 134.117 40.129 134.436C38.9407 134.917 37.6234 135.046 36.3809 135.331C33.7395 135.936 31.1661 136.825 28.5519 137.531C25.9106 138.243 23.2489 138.881 20.6143 139.628C19.0051 140.089 17.4298 140.714 15.7459 140.856C15.0804 140.911 14.3335 140.856 13.8243 140.374C13.186 139.77 12.8193 138.834 12.5477 138.019V138.04ZM35.7426 218.686C35.4031 217.96 34.9753 217.139 34.8667 216.331C34.7988 215.795 34.9142 215.632 35.4031 215.51C36.021 215.353 36.6796 215.367 37.3043 215.333C38.2345 215.279 39.1376 215.109 40.0543 214.967C42.6413 214.559 45.2487 214.24 47.8221 213.752C53.6616 212.645 59.2362 210.555 64.804 208.519C65.4491 210.27 66.1077 212.014 66.6781 213.786C66.9904 214.756 67.2892 215.727 67.588 216.697C65.2929 216.935 63.2016 217.939 60.9405 218.367C58.3195 218.863 55.7393 219.548 53.1659 220.247C50.8301 220.878 48.5011 221.571 46.111 221.971C43.8295 222.351 41.2969 222.609 39.0018 222.161C37.3858 221.842 36.3741 220.043 35.7358 218.686H35.7426ZM64.8719 199.709C64.9466 199.675 64.9806 199.607 64.9874 199.526C65.9516 198.996 67.1534 198.711 68.0565 198.535C69.1021 198.331 70.141 198.256 71.2003 198.222C71.8182 198.202 72.4496 198.168 73.054 198.331C73.6175 198.487 73.9027 198.915 74.1675 199.403C75.607 202.064 76.4762 205.023 77.3521 207.901C78.3298 211.125 79.5181 214.281 80.0341 217.62C80.2107 218.767 80.2446 219.887 79.4502 220.817C78.7916 221.584 77.8206 222.025 76.8768 222.331C75.3422 222.826 72.9317 223.681 71.4311 222.684C70.8064 222.27 70.5349 221.415 70.3244 220.736C69.8151 219.141 69.3534 217.532 68.8645 215.937C67.7306 212.258 66.1756 208.79 64.7158 205.24C64.0028 203.51 62.4818 200.795 64.8719 199.702V199.709ZM63.6362 287.672C63.6973 287.814 63.7719 287.977 63.8534 288.147C63.8534 288.147 63.8399 288.133 63.8331 288.133C63.2763 287.584 62.9911 286.749 62.7534 286.023C62.5022 285.242 62.2646 284.455 62.0201 283.674C61.3886 281.672 60.8454 279.636 60.4788 277.566C60.2887 276.5 60.1664 275.428 60.1053 274.348C60.0578 273.582 59.9559 272.672 60.3294 271.966C60.3294 271.966 60.3294 271.966 60.3294 271.959C60.2954 272.767 60.5738 273.677 60.7504 274.369C61.2664 276.358 61.5584 278.421 61.9318 280.437C62.2306 282.079 62.4615 283.735 62.8689 285.357C63.0726 286.152 63.2966 286.939 63.6294 287.685L63.6362 287.672ZM65.5374 275.876C65.7479 276.867 65.9244 277.864 66.0941 278.862C66.3725 280.45 66.5083 282.059 66.7935 283.647C66.9293 284.394 67.1806 285.106 67.3571 285.846C67.4997 286.437 67.7102 287.312 67.296 287.842C66.8614 288.412 65.7954 288.676 64.9127 288.575C64.6479 288.093 64.288 287.679 64.0503 287.17C63.738 286.484 63.5139 285.751 63.3306 285.018C62.9639 283.538 62.7331 282.025 62.4615 280.532C62.1288 278.72 61.8232 276.887 61.4497 275.082C61.1917 273.853 60.6961 272.563 60.9473 271.328C61.3207 271.097 61.7757 270.955 62.1831 270.839C62.4751 270.758 62.801 270.663 63.1405 270.588C63.1948 270.738 63.3374 270.833 63.5886 270.785C63.5615 270.785 63.6294 270.792 63.6973 270.833C63.8263 270.907 63.9145 271.043 64.0028 271.158C64.2608 271.525 64.4306 271.953 64.5935 272.367C65.0281 273.5 65.2929 274.695 65.5442 275.876H65.5374ZM72.0355 279.52C72.0694 279.894 72.0898 280.281 72.0083 280.654C71.92 281.075 71.8385 281.061 71.4176 281.129C71.3157 280.403 70.9762 279.643 70.7725 278.977C70.4941 278.081 70.2089 277.192 69.8898 276.31C69.2379 274.491 68.5929 272.665 67.8935 270.86C67.812 270.656 67.4861 270.941 67.554 271.131C68.233 272.95 68.8441 274.783 69.3534 276.656C69.5978 277.545 69.8423 278.434 70.0799 279.33C70.1953 279.758 70.304 280.186 70.4126 280.613C70.4602 280.803 70.5009 281.014 70.5552 281.217C69.8694 281.204 69.2651 280.953 68.8984 280.247C68.3552 279.201 67.9275 278.095 67.4182 277.036C66.7664 275.672 66.3658 274.274 65.9516 272.828C65.6121 271.627 65.1096 270.48 64.8584 269.258C64.7226 268.6 64.6139 267.941 64.4917 267.283C64.9738 267.201 65.4627 267.1 65.9448 266.984C66.067 267.222 66.1621 267.446 66.3046 267.724C66.3725 267.867 66.454 268.05 66.5287 268.226C66.6102 268.423 66.6917 268.62 66.7732 268.81C66.9022 269.116 67.2145 268.81 67.1873 268.579C67.1059 267.968 67.0448 267.344 66.8546 266.767C67.3775 266.638 67.8935 266.509 68.4096 266.387C68.6947 267.711 69.2583 269.014 69.6589 270.296C70.0663 271.606 70.3855 272.916 70.7182 274.247C71.1595 276.005 71.8725 277.708 72.0422 279.527L72.0355 279.52ZM73.1626 267.568C73.8212 267.521 74.0725 268.063 74.3644 268.579C75.7496 271.03 76.6595 273.683 77.5014 276.364C77.8749 277.559 78.2484 278.76 78.5335 279.982C78.778 281.007 79.1514 282.439 78.8595 283.477C78.8051 283.667 78.7237 283.83 78.6218 283.986C78.5471 283.118 78.2348 282.201 78.0175 281.475C77.5761 280.002 76.9718 278.584 76.415 277.158C75.7021 275.339 75.1453 273.453 74.5817 271.579C74.3305 270.744 74.0249 269.957 73.6854 269.156C73.4682 268.634 73.2712 268.104 73.0472 267.595C73.0879 267.595 73.1287 267.582 73.1626 267.582V267.568ZM71.6892 267.921C71.9268 267.833 72.1916 267.744 72.4564 267.683C72.504 267.948 72.6058 268.22 72.7077 268.491C73.0064 269.285 73.4206 270.025 73.7533 270.799C74.5614 272.692 75.091 274.708 75.77 276.656C76.2453 278.027 76.8089 279.364 77.2502 280.749C77.6712 282.059 78.0175 283.362 77.6237 284.719C77.6237 284.74 77.6169 284.76 77.6101 284.781C77.5694 284.801 77.5286 284.821 77.4811 284.842C77.1416 284.971 76.8292 285.011 76.4694 285.005C75.8786 284.998 75.5731 284.753 75.1928 284.305C74.412 283.403 73.9638 282.229 73.5836 281.115C73.4342 280.674 73.2984 280.226 73.1694 279.778C73.1558 278.156 72.47 276.453 72.0219 274.986C71.6009 273.588 71.3089 272.163 70.9626 270.751C70.7793 269.991 70.5756 269.231 70.3855 268.471C70.7929 268.24 71.275 268.091 71.6892 267.935V267.921ZM76.6255 262.437C76.3947 261.792 76.0076 261.161 75.6613 260.584C75.2879 259.966 74.8669 259.383 74.3916 258.846C73.4138 257.754 72.2052 256.878 70.8132 256.403C67.9003 255.405 64.6343 255.697 61.7553 256.654C61.7078 256.668 61.6942 256.783 61.7553 256.769C63.1405 256.505 64.6071 256.464 66.0195 256.484C67.4386 256.505 68.8849 256.607 70.2565 257.014C71.662 257.428 72.8842 258.269 73.8552 259.355C74.3373 259.898 74.7583 260.496 75.1249 261.12C75.4237 261.636 75.6206 262.192 75.8583 262.729C75.7632 262.763 75.6749 262.797 75.5934 262.83C74.2151 263.401 72.8095 263.849 71.3293 264.059C70.6707 264.154 70.012 264.093 69.3466 264.127C68.7015 264.154 68.0497 264.235 67.4114 264.337C66.1553 264.534 64.9195 264.867 63.6497 264.989C60.7504 265.267 58.4757 263.638 56.201 262.07C55.3455 261.48 54.4356 261.025 53.6208 260.373C53.2949 260.116 52.8264 259.756 52.4258 259.342C52.5616 259.267 52.7042 259.186 52.84 259.111C53.3899 258.812 53.9603 258.555 54.551 258.344C55.6646 257.944 56.8325 257.604 58.0072 257.441C58.2177 257.414 58.3467 256.919 58.0751 256.912C56.7578 256.871 55.4609 257.217 54.2455 257.713C53.6412 257.957 53.0165 258.222 52.4801 258.602C52.4326 258.636 52.256 258.772 52.0727 258.935C51.8079 258.568 51.6449 258.181 51.7128 257.788C51.7603 257.502 51.448 257.278 51.3122 257.55C51.3122 257.523 51.3122 257.502 51.3122 257.482C51.3461 257.448 51.4276 257.346 51.4616 257.319C51.6449 257.163 51.8418 257.014 52.0455 256.885C52.4597 256.62 52.9079 256.403 53.3492 256.186C53.872 255.935 54.3338 255.582 54.8498 255.331C56.2486 254.645 57.7899 254.489 59.3177 254.374C60.7911 254.265 62.2917 254.238 63.7652 254.312C65.1368 254.387 66.5287 254.238 67.8935 254.122C70.3855 253.912 73.1287 253.545 75.2539 255.154C76.157 255.84 76.87 256.756 77.3113 257.794C77.7323 258.772 78.2823 260.156 78.0786 261.242C77.97 261.806 77.291 262.172 76.6187 262.444L76.6255 262.437ZM178.884 251.516C179.081 252.432 179.318 253.335 179.597 254.224C179.719 254.611 179.834 255.012 179.977 255.405C179.183 254.564 178.843 253.138 178.605 252.052C177.994 249.276 177.254 246.527 176.867 243.704C176.677 242.346 176.27 240.616 176.955 239.326C176.765 240.208 176.881 241.206 177.03 242.041C177.302 243.568 177.791 245.048 178.11 246.561C178.449 248.197 178.531 249.874 178.884 251.509V251.516ZM183.515 252.195C183.698 253.05 183.888 254.021 183.65 254.889C183.413 255.751 182.55 256.064 181.729 256.104C181.552 256.111 181.389 256.104 181.233 256.077C181.233 256.077 181.233 256.07 181.233 256.064C180.934 255.331 180.52 254.645 180.242 253.898C179.943 253.104 179.705 252.283 179.495 251.462C179.094 249.894 178.857 248.306 178.592 246.711C178.347 245.272 178.008 243.853 177.804 242.414C177.696 241.654 177.634 240.88 177.628 240.113C177.628 239.557 177.73 239 177.73 238.451C178.293 238.077 178.992 237.982 179.699 238.037C179.943 239.048 180.194 240.059 180.384 241.091C180.602 242.306 180.955 243.494 181.165 244.708C181.376 245.951 181.512 247.22 181.837 248.441C182.055 249.256 182.401 250.057 183.114 250.505C183.263 251.068 183.399 251.625 183.521 252.195H183.515ZM187.562 239.774C187.847 241.274 188.308 242.733 188.614 244.227C188.838 245.319 189.286 246.758 188.967 247.871C188.729 248.706 187.663 249.134 186.903 249.337C186.808 249.365 186.706 249.385 186.604 249.405C186.516 248.957 186.353 248.509 186.244 248.082C186.095 247.478 185.993 246.86 185.823 246.263C185.735 245.957 185.592 245.693 185.531 245.374C185.463 245.034 185.409 244.688 185.348 244.349C185.239 243.711 185.137 243.066 185.036 242.421C185.002 242.177 184.737 242.36 184.764 242.543C184.852 243.188 184.947 243.833 185.056 244.478C185.11 244.824 185.171 245.163 185.226 245.509C185.287 245.849 185.26 246.175 185.294 246.514C185.355 247.152 185.524 247.797 185.66 248.428C185.728 248.754 185.783 249.134 185.864 249.493C185.3 249.521 184.71 249.46 184.262 249.242C183.895 249.066 183.623 248.72 183.406 248.326C183.168 247.546 182.937 246.765 182.727 245.984C182.428 244.871 182.286 243.684 181.878 242.611C181.851 242.537 181.81 242.503 181.776 242.482C181.62 241.681 181.471 240.874 181.342 240.059C181.247 239.455 181.172 238.763 181.036 238.084C181.288 237.819 181.321 237.188 181.002 237.018C180.9 236.964 180.792 236.923 180.683 236.876C180.609 236.699 180.534 236.53 180.439 236.374C181.084 236.123 181.715 235.844 182.326 235.498C182.578 235.362 182.808 235.206 183.046 235.057C183.236 235.77 183.325 236.509 183.467 237.283C183.644 238.261 183.841 239.36 184.363 240.215C184.506 240.453 184.764 240.256 184.716 240.025C184.506 238.973 184.533 237.921 184.424 236.862C184.343 236.041 184.228 235.206 183.868 234.473C184.649 233.89 185.382 233.238 186.068 232.546C186.502 233.272 186.523 234.494 186.665 235.193C186.971 236.713 187.263 238.24 187.555 239.761L187.562 239.774ZM187.976 234.059C188.566 233.727 189.313 233.489 189.918 233.747C190.04 234.073 190.121 234.412 190.203 234.745C190.366 235.41 190.488 236.082 190.712 236.727C190.814 237.025 191.181 236.686 191.133 236.462C191.072 236.136 191.045 235.804 191.004 235.471C190.97 235.193 190.923 234.914 190.861 234.643C191.276 235.227 191.581 235.912 191.799 236.557C192.362 238.186 192.797 239.862 193.299 241.512C193.883 243.432 194.508 245.346 194.942 247.308C195.092 248 195.268 248.693 195.404 249.385C195.526 250.016 195.71 250.797 195.547 251.435C195.465 251.754 195.221 252.005 194.902 252.195C194.854 251.387 194.657 250.525 194.542 249.799C194.352 248.557 194.1 247.322 193.808 246.1C193.218 243.656 192.376 241.281 191.71 238.865C191.642 238.627 191.371 238.878 191.418 239.061C192.043 241.451 192.64 243.833 193.19 246.242C193.462 247.43 193.734 248.618 193.937 249.819C194.046 250.451 194.134 251.089 194.189 251.727C194.209 251.971 194.209 252.229 194.216 252.48C193.645 252.636 193.028 252.656 192.634 252.527C191.608 252.208 191.12 250.926 190.807 250.009C190.386 248.774 190.182 247.484 189.992 246.195C189.734 244.457 189.47 242.727 189.205 240.989C188.858 238.695 188.587 236.299 187.983 234.052L187.976 234.059ZM190.223 223.152C189.395 222.969 188.485 223.179 187.684 223.383C186.536 223.675 185.429 224.109 184.316 224.496C181.247 225.562 178.463 227 175.679 228.663C175.557 228.738 175.679 229.016 175.822 228.935C178.551 227.353 181.383 226.172 184.377 225.188C185.409 224.849 186.448 224.55 187.514 224.34C188.268 224.191 189.178 224 189.986 224.129C189.931 224.292 189.884 224.442 189.857 224.543C189.259 226.519 188.105 228.093 186.801 229.661C186.149 230.448 185.47 231.209 184.825 231.996C184.323 232.614 183.807 233.19 183.223 233.713C183.134 233.713 183.039 233.74 182.965 233.808C182.91 233.862 182.876 233.944 182.849 234.025C182.679 234.168 182.503 234.304 182.32 234.433C180.459 235.715 177.981 236.455 175.72 236.326C174.905 236.279 174.144 236.374 173.336 236.509C173.031 236.557 172.712 236.625 172.393 236.672C172.637 235.81 172.773 234.914 172.956 234.039C173.058 233.523 173.207 233.021 173.323 232.512C173.438 232.003 173.567 231.494 173.744 231.005C173.832 230.761 173.533 230.618 173.397 230.835C173.112 231.297 172.868 231.779 172.664 232.288C172.46 232.817 172.331 233.38 172.216 233.93C172.019 234.84 171.856 235.776 171.761 236.706C171.666 236.706 171.571 236.706 171.476 236.693C169.812 236.462 170.254 233.279 170.342 232.172C170.451 230.781 170.403 228.724 171.218 227.672C171.625 227.143 172.243 226.817 172.868 226.457C173.975 225.813 174.966 224.964 176.127 224.415C177.539 223.736 179.067 223.288 180.581 222.901C181.939 222.555 183.365 222.195 184.764 222.046C185.755 221.944 186.74 222.202 187.731 222.188C188.268 222.181 188.824 222.12 189.347 221.971C189.619 221.971 189.924 221.991 190.094 222.154C190.298 222.351 190.298 222.738 190.237 223.152H190.223ZM186.366 188.259C187.154 191.035 187.731 193.865 188.376 196.682C189.069 199.716 189.592 202.763 189.904 205.865C190.182 208.62 190.223 211.39 190.474 214.152C190.576 215.292 190.726 216.439 190.719 217.586C190.719 218.32 190.603 218.93 190.352 219.534C190.223 219.724 190.142 219.894 190.087 220.077C190.053 220.139 190.013 220.206 189.979 220.267C189.958 220.295 189.945 220.322 189.931 220.349C189.863 220.383 189.795 220.417 189.721 220.471C189.605 220.559 189.47 220.614 189.32 220.668C189.171 220.695 189.021 220.736 188.872 220.777C188.261 220.865 187.555 220.804 187.032 220.858C186.76 220.885 186.495 220.912 186.231 220.946C186.577 219.908 186.624 218.693 186.645 217.675C186.679 215.958 186.421 214.295 186.224 212.591C185.762 208.661 185.063 204.786 184.268 200.917C183.827 198.765 182.965 196.573 183.175 194.34C183.196 194.136 182.965 194.198 182.944 194.367C182.761 196.159 183.277 197.951 183.691 199.675C184.173 201.684 184.438 203.74 184.866 205.763C185.613 209.292 186.027 212.89 186.075 216.494C186.088 217.403 186.061 218.313 185.945 219.215C185.864 219.847 185.694 220.444 185.518 221.041C184.968 221.123 184.418 221.231 183.875 221.374C182.394 221.761 180.907 222.12 179.447 222.568C178.015 223.01 176.65 223.648 175.21 224.062C173.038 224.693 170.763 225.209 169.371 227.163C168.223 228.772 168.251 231.019 168.122 232.912C168.013 234.466 167.857 236.937 169.174 238.084C168.984 238.145 168.801 238.206 168.617 238.267C167.768 238.58 166.92 238.878 166.064 239.17C164.435 239.727 162.791 240.249 161.141 240.758C157.923 241.749 154.684 242.672 151.479 243.704C145.042 245.781 138.551 247.695 132.06 249.582C125.453 251.509 118.846 253.328 112.097 254.693C105.381 256.05 98.5574 256.898 91.9032 258.555C88.2773 259.457 84.6921 260.502 81.0662 261.392C80.2175 261.602 79.3823 261.833 78.5539 262.091C79.0021 261.426 79.0971 260.604 79.0224 259.763C78.8934 258.398 78.4792 257.021 77.7663 255.846C76.3811 253.566 73.9095 252.229 71.3225 251.822C69.7336 251.57 68.0089 251.577 66.4269 251.883C65.5985 252.039 64.7633 252.303 63.9485 252.541C63.1133 252.792 62.251 252.907 61.3819 253.016C59.6368 253.233 57.8646 253.301 56.1535 253.769C54.8973 254.116 53.6751 254.591 52.4529 255.039C51.5227 255.378 50.606 255.785 50.1715 256.64C49.9406 256.301 49.7165 255.962 49.5196 255.609C48.8949 254.496 48.2974 253.369 47.6591 252.263C46.3554 250.003 45.174 247.654 44.2641 245.204C43.3339 242.713 42.6277 240.134 41.8333 237.595C40.9506 234.785 40.3598 231.894 39.5518 229.057C39.0018 227.129 38.187 225.297 37.8068 223.342C39.1512 223.817 40.7265 223.634 42.1592 223.478C42.4172 223.451 42.682 223.41 42.9401 223.376C42.9401 223.43 42.9536 223.485 42.974 223.532C45.1672 228.059 46.0431 233.075 47.8357 237.751C48.6776 239.944 49.4653 242.184 50.5381 244.274C51.4548 246.059 52.8264 248 52.9554 250.057C52.9622 250.179 53.0844 250.118 53.0844 250.023C53.064 248.082 51.869 246.242 50.9931 244.579C49.8252 242.36 48.827 239.978 48.0801 237.589C46.5863 232.81 45.724 227.835 43.6123 223.274C45.7308 222.921 47.8153 222.358 49.8795 221.788C52.8196 220.98 55.7665 220.132 58.7609 219.548C60.2819 219.249 61.8028 219.046 63.2966 218.632C64.7633 218.224 66.2232 217.715 67.7577 217.654C67.7985 217.654 67.8324 217.641 67.8731 217.634C68.0497 218.218 68.2262 218.801 68.4028 219.385C68.817 220.743 69.1768 222.236 70.046 223.396C70.6028 224.136 71.3632 224.652 72.3138 224.632C73.4342 224.605 74.4799 224.116 75.5391 223.804C77.5422 223.206 80.1088 222.433 80.7607 220.179C81.1749 218.754 80.7607 217.179 80.4959 215.761C80.3465 214.953 80.1767 214.145 79.9866 213.338C81.5755 213.378 83.1779 212.652 84.6514 212.157C86.7631 211.451 89.0106 211.145 91.1902 210.697C95.8142 209.74 100.336 208.376 104.94 207.338C109.612 206.286 114.263 205.261 118.887 204.032C123.518 202.804 128.135 201.501 132.759 200.238C135.339 199.532 137.899 198.779 140.479 198.073C141.688 197.74 142.903 197.421 144.112 197.102C145.13 196.831 145.972 196.254 146.957 195.901C146.964 195.901 146.971 195.894 146.977 195.888C147.378 198.195 147.921 200.686 149.646 202.281C150.766 203.313 152.287 203.421 153.706 203.048C155.404 202.6 156.999 201.826 158.616 201.148C159.641 200.72 160.578 200.259 160.829 199.084C160.958 198.487 160.917 197.863 160.877 197.265C160.795 196.173 160.659 195.08 160.476 193.994C160.327 193.132 160.157 192.27 159.98 191.415C162.214 190.587 164.611 190.308 166.906 189.698C168.189 189.358 169.493 189.06 170.783 188.741C171.972 188.449 173.099 188.028 174.253 187.627C175.482 187.2 176.731 186.813 177.954 186.358C179.054 185.951 180.113 185.435 181.213 185.021C182.313 184.607 183.433 184.234 184.506 183.745C184.818 183.603 185.144 183.446 185.47 183.27C185.395 184.946 185.918 186.677 186.366 188.259ZM146.624 193.743C146.665 194.001 146.699 194.265 146.746 194.523C146.774 194.673 146.801 194.822 146.828 194.971C146.441 195.114 146.108 195.304 145.782 195.569C145.341 195.922 144.886 196.112 144.343 196.268C143.27 196.573 142.184 196.851 141.104 197.143C138.85 197.747 136.575 198.27 134.321 198.874C129.771 200.089 125.242 201.392 120.713 202.675C116.164 203.964 111.601 205.206 106.997 206.292C102.435 207.372 97.9192 208.641 93.3494 209.686C90.8711 210.249 88.318 210.596 85.8736 211.268C83.8909 211.811 81.9829 212.849 79.8983 212.89C79.6879 212.007 79.4502 211.132 79.2058 210.263C78.7237 208.573 78.228 206.89 77.7052 205.22C78.3163 205.234 78.9342 205.098 79.5249 204.983C80.4891 204.786 81.4601 204.596 82.4107 204.345C84.8211 203.72 87.2044 203.035 89.6557 202.58C94.4494 201.691 99.0463 200.164 103.752 198.915C108.512 197.652 113.163 196.01 117.923 194.761C122.683 193.512 127.565 192.799 132.256 191.299C136.663 189.894 140.989 188.225 145.395 186.833C145.395 186.833 145.402 186.827 145.409 186.827C145.728 189.073 145.925 191.347 146.509 193.546C146.536 193.641 146.577 193.702 146.631 193.75L146.624 193.743ZM145.626 185.232C145.436 184.261 145.226 183.29 145.001 182.32C144.492 180.141 143.997 177.569 146.359 176.313C147.29 175.818 148.342 175.485 149.347 175.193C150.522 174.847 151.771 174.582 153 174.745C155.546 175.085 156.171 178.492 156.667 180.542C157.448 183.779 158.419 186.949 159.064 190.227C159.098 190.39 159.933 194.503 160.096 195.949C160.225 197.069 160.646 198.799 159.627 199.641C159.213 199.98 158.69 200.17 158.188 200.34C157.434 200.591 156.687 200.863 155.92 201.08C154.406 201.514 152.891 201.65 151.364 201.202C149.15 200.544 148.553 197.388 148.077 195.467C147.67 193.804 147.256 192.141 146.862 190.478C146.448 188.734 146.156 186.949 145.619 185.232H145.626ZM186.115 180.833C185.979 181.648 184.975 182.042 184.316 182.381C183.325 182.89 182.286 183.277 181.254 183.691C180.242 184.098 179.271 184.587 178.273 185.014C177.146 185.489 175.991 185.89 174.837 186.29C172.223 187.2 169.649 188.143 166.96 188.822C165.643 189.155 164.333 189.426 163.002 189.67C161.915 189.867 160.822 190.084 159.783 190.458C159.586 189.501 159.39 188.537 159.227 187.573C158.907 185.693 158.527 183.84 158.154 181.967C158.154 181.953 158.154 181.946 158.147 181.933C159.444 182.069 160.958 181.342 162.099 180.949C164.143 180.25 166.248 179.7 168.325 179.103C170.6 178.444 172.983 178.078 175.217 177.297C177.342 176.557 179.325 175.58 181.559 175.146C182.34 174.99 183.223 174.82 183.97 175.2C184.506 175.471 184.784 176.028 184.995 176.564C185.273 177.277 185.491 178.017 185.735 178.743C185.945 179.381 186.237 180.148 186.122 180.833H186.115ZM167.259 107.178C167.816 109.716 168.414 112.241 169.045 114.766C170.301 119.795 171.625 124.804 172.936 129.813C174.233 134.768 175.319 139.784 176.426 144.786C176.983 147.304 177.675 149.782 178.32 152.273C178.945 154.696 178.952 157.227 179.78 159.603C180.704 162.257 181.186 165.087 181.79 167.829C182.055 169.03 182 170.3 182.354 171.48C182.496 171.942 182.679 172.383 182.842 172.838C182.904 173.014 183.012 173.266 183.087 173.517C182.747 173.537 182.415 173.591 182.096 173.652C180.948 173.87 179.8 174.209 178.714 174.643C178.667 174.664 178.619 174.684 178.571 174.704C178.402 173.938 178.13 173.184 177.933 172.424C177.702 171.535 177.451 170.652 177.254 169.757C176.84 167.917 176.487 166.071 176.018 164.245C175.129 160.77 174.151 157.261 172.311 154.153C172.277 154.098 172.202 154.173 172.23 154.22C174.083 157.485 175.041 161.13 175.726 164.795C176.066 166.614 176.433 168.433 176.786 170.252C176.955 171.128 177.098 172.003 177.295 172.872C177.458 173.571 177.594 174.331 177.831 175.023C177.064 175.376 176.31 175.763 175.543 176.116C174.341 176.673 173.065 177.107 171.795 177.46C169.004 178.227 166.227 179.048 163.436 179.829C161.63 180.338 159.892 181.105 158.038 181.424C157.767 180.066 157.475 178.709 157.013 177.406C156.565 176.143 155.906 174.671 154.738 173.91C153.747 173.266 152.477 173.415 151.37 173.578C150.046 173.775 148.722 174.128 147.459 174.576C146.224 175.01 144.723 175.492 144.037 176.693C143.474 177.677 143.467 178.777 143.677 179.849C143.677 179.965 143.691 180.073 143.705 180.182C143.834 181.512 144.261 182.822 144.669 184.084C144.893 184.777 145.103 185.469 145.293 186.168C145.287 186.168 145.28 186.168 145.273 186.168C141.396 187.051 137.682 188.489 133.913 189.745C131.639 190.505 129.35 191.17 127.008 191.7C124.631 192.243 122.234 192.698 119.858 193.261C115.186 194.367 110.712 196.057 106.149 197.53C101.402 199.057 96.5951 200.632 91.7131 201.677C89.1328 202.227 86.5458 202.716 83.9792 203.333C82.6891 203.645 81.3989 203.93 80.0885 204.161C79.2465 204.311 78.3366 204.616 77.4675 204.541C76.965 202.967 76.4354 201.399 75.8583 199.845C75.3829 198.555 74.7786 197.007 73.3731 196.485C72.1577 196.03 70.7385 196.675 69.5231 196.885C67.1738 197.279 63.5479 197.734 62.5837 200.34C61.8572 202.295 62.8621 204.141 63.867 205.926C64.1115 206.618 64.3627 207.311 64.6139 208.003C61.959 208.906 59.338 209.89 56.6628 210.738C53.9807 211.587 51.2239 212.021 48.4468 212.435C45.6357 212.856 42.8246 213.256 40.0203 213.731C39.9456 213.745 39.8709 213.758 39.7963 213.772C39.8098 213.643 39.7963 213.514 39.7012 213.433C39.2666 213.032 39.1037 212.326 38.9407 211.783C38.7166 211.016 38.5469 210.229 38.3839 209.449C37.9697 207.528 37.4673 205.621 36.9444 203.727C35.6543 199.03 33.9704 194.435 32.5309 189.779C31.0778 185.055 29.6791 180.318 28.3822 175.553C27.1328 170.965 25.4081 166.438 24.6137 161.734C23.9347 157.729 23.6155 153.216 21.1507 149.829C21.0964 149.754 21.0149 149.877 21.0489 149.938C22.0063 151.601 22.5359 153.535 22.9705 155.388C23.4186 157.288 23.7174 159.229 24.0297 161.157C24.7902 165.813 26.5488 170.171 27.7711 174.711C29.0612 179.49 30.4192 184.241 31.8383 188.985C33.2642 193.756 34.9346 198.494 36.1704 203.32C36.7271 205.498 37.2975 207.677 37.7457 209.883C37.929 210.779 38.1123 211.675 38.3839 212.55C38.5265 213.012 38.6963 213.514 38.9814 213.915C38.4314 213.996 37.8815 214.071 37.3179 214.098C36.5981 214.132 35.858 214.159 35.1654 214.369C35.1043 214.39 35.0568 214.417 34.9957 214.437C34.9957 214.206 34.921 213.996 34.6969 213.887C33.5833 211.77 33.1759 209.428 32.4969 207.154C31.8179 204.874 30.7451 202.736 30.005 200.476C28.4569 195.745 27.5674 190.831 26.3723 186.005C25.1705 181.146 23.5816 176.374 22.2507 171.548C20.9131 166.716 19.9761 161.781 18.6045 156.956C17.8304 154.227 16.873 151.553 16.2551 148.784C15.7866 146.687 15.5422 144.549 14.8835 142.512C16.0718 142.621 17.3958 142.139 18.4279 141.766C20.7162 140.931 23.0112 140.239 25.3674 139.621C28.5587 138.786 31.7161 137.829 34.887 136.933C36.4284 136.499 38.0308 136.255 39.5586 135.779C40.5567 135.467 41.487 134.829 42.4987 134.571C42.5055 135.026 42.5191 135.474 42.5802 135.929C42.7839 137.51 43.2524 139.221 43.9925 140.639C44.719 142.024 45.9005 142.94 47.4894 143.021C49.1733 143.11 50.8165 142.594 52.3714 142.003C53.648 141.521 55.1554 140.85 55.9566 139.682C56.7307 138.555 56.7578 137.137 56.5813 135.827C56.3776 134.354 55.9023 132.929 55.4609 131.51C55.3998 131.32 55.3455 131.123 55.2912 130.933C60.1053 129.678 64.9942 128.741 69.7879 127.411C74.7379 126.033 79.6267 124.438 84.5699 123.013C89.5606 121.574 94.6396 120.433 99.6846 119.191C104.709 117.956 109.72 116.666 114.725 115.329C116.768 114.78 118.799 114.277 120.863 113.816C122.126 113.531 123.694 113.239 124.842 112.472C125.005 113.056 125.174 113.639 125.331 114.23C125.69 115.587 126.003 116.89 126.75 118.099C127.347 119.062 128.128 119.802 129.242 120.121C131.564 120.78 134.382 119.958 136.548 119.103C137.695 118.655 138.918 118.065 139.732 117.114C140.73 115.954 140.581 114.508 140.269 113.103C140.106 112.37 139.882 111.651 139.766 110.911C139.617 109.967 139.488 109.017 139.305 108.081C141.199 107.986 143.026 107.28 144.886 106.94C146.163 106.71 147.446 106.574 148.709 106.295C150.019 106.004 151.296 105.617 152.559 105.148C153.883 104.653 155.227 104.212 156.565 103.757C157.224 103.533 157.875 103.282 158.541 103.051C159.03 104.952 159.464 106.866 159.967 108.759C160.619 111.223 161.345 113.673 161.97 116.144C163.253 121.214 164.53 126.277 165.793 131.347C166.078 132.501 166.431 133.621 166.811 134.748C167.252 136.051 167.701 137.402 167.667 138.8C167.667 138.888 167.762 138.84 167.768 138.779C167.877 136.655 166.954 134.619 166.397 132.61C165.698 130.078 165.236 127.485 164.564 124.947C163.212 119.802 162.017 114.623 160.727 109.465C160.177 107.259 159.756 105.026 159.213 102.814C159.559 102.705 159.899 102.596 160.252 102.515C162.038 102.081 164.516 102.142 165.786 100.567C166.2 102.78 166.757 104.979 167.239 107.178H167.259ZM165.555 99.0331C165.351 99.9155 164.55 100.268 163.762 100.553C162.771 100.906 161.753 101.198 160.754 101.544C160.184 101.741 159.62 101.931 159.05 102.121C158.907 101.823 158.541 102.04 158.446 102.325C156.891 102.861 155.329 103.397 153.767 103.92C151.079 104.823 148.471 105.596 145.653 105.97C143.48 106.255 141.314 107.212 139.108 107.056C138.761 105.481 138.347 103.92 137.926 102.359C137.689 101.463 137.451 100.567 137.206 99.6711C139.393 99.067 141.64 98.7209 143.813 98.0625C146.149 97.3499 148.471 96.5965 150.814 95.911C151.859 95.6055 152.871 95.2254 153.89 94.8454C154.915 94.4653 155.947 94.1395 156.932 93.6644C157.882 93.2028 158.826 92.7074 159.797 92.2933C160.639 91.9404 161.705 91.4721 162.642 91.635C164.034 91.8793 164.523 93.6304 164.862 94.7843C165.236 96.0739 165.86 97.6757 165.548 99.0331H165.555Z" fill="#331615"/>
<path d="M95.7059 91.764C95.6109 91.4993 95.2239 91.8455 95.251 92.0355C95.4615 93.6916 95.4955 95.1576 94.9387 96.7459C94.477 98.0694 93.5399 98.911 92.3381 99.6169C90.0227 100.974 87.5918 102.135 85.0116 102.909C82.4178 103.682 79.4641 104.246 76.85 103.241C75.7432 102.814 74.874 102.067 74.1068 101.185C73.4346 100.411 72.9185 99.6101 72.5586 98.6463C72.1648 97.6011 71.9272 96.4947 71.7099 95.402C71.4858 94.2889 71.3161 93.169 71.1191 92.0491C70.9766 91.221 70.8611 90.3251 70.9562 89.4767C71.0512 88.6758 71.7303 88.1871 72.3957 87.807C72.8778 87.5355 73.387 87.3116 73.9099 87.1351C76.3 86.7686 78.6697 85.9202 80.9715 85.2075C82.2073 84.8206 83.4295 84.393 84.6517 83.9654C85.8196 83.5582 87.0283 83.2731 88.2165 82.9134C89.3029 82.5876 90.9937 81.6578 92.0597 82.4587C92.4264 82.7369 92.664 83.1645 92.8813 83.5582C93.214 84.1691 93.5535 84.8003 93.7776 85.4586C94.2393 86.8297 94.4294 88.3025 94.7893 89.7007C94.8368 89.8839 95.0269 89.7686 94.9862 89.6124C94.6263 88.2957 94.3276 86.9586 94.022 85.6215C93.764 84.4881 93.6689 83.2799 93.0307 82.2686C92.1819 80.9383 90.9257 80.8976 89.5202 81.2437C87.1369 81.8274 84.74 82.255 82.3431 82.7573C80.9715 83.0424 79.6203 83.3953 78.2623 83.7482C76.9586 84.0876 75.6413 84.5559 74.3105 84.7867C73.1494 84.9903 71.7778 84.9971 70.8204 85.7641C69.7611 86.6057 69.3266 90.0265 69.3402 90.2029C69.4081 91.0513 69.8494 91.8047 70.0463 92.6124C70.6167 94.9472 71.0784 97.2889 71.7506 99.5965C72.2531 101.327 72.7352 103.119 74.392 104.076C77.0537 105.61 80.6931 104.884 83.4974 104.164C86.4715 103.397 89.3844 102.291 92.2566 101.212C94.1307 100.506 95.9572 99.2572 96.5208 97.221C97.0096 95.4563 96.2831 93.3997 95.6992 91.7301L95.7059 91.764Z" fill="#331615"/>
<path d="M18.2854 84.4881C18.5299 85.703 18.4212 86.9179 18.2651 88.1396C18.1089 89.3003 17.912 90.4812 17.525 91.5876C17.4978 91.669 17.5793 91.7097 17.62 91.6283C18.1768 90.5152 18.5503 89.3342 18.6725 88.0853C18.7879 86.8704 18.625 85.6283 18.3601 84.4406C18.3466 84.3863 18.2854 84.4406 18.2922 84.4813L18.2854 84.4881Z" fill="#331615"/>
<path d="M36.3744 48.1964C36.3201 48.21 36.3133 48.339 36.3744 48.3254C36.4287 48.3118 36.4355 48.1829 36.3744 48.1964Z" fill="#331615"/>
</g>
<defs>
<clipPath id="clip0_32_1126">
<rect width="197" height="290" fill="white"/>
</clipPath>
</defs>
</svg>
