<svg width="36" height="36" viewBox="0 0 36 36" fill="none" xmlns="http://www.w3.org/2000/svg">
<path d="M30.2401 10.26C25.9201 3.6 17.1001 1.62 10.2601 5.76C3.60009 9.9 1.44009 18.9 5.76009 25.56L6.12009 26.1L4.68009 31.5L10.0801 30.06L10.6201 30.42C12.9601 31.68 15.4801 32.4 18.0001 32.4C20.7001 32.4 23.4001 31.68 25.7401 30.24C32.4001 25.92 34.3801 17.1 30.2401 10.26ZM26.4601 24.12C25.7401 25.2 24.8401 25.92 23.5801 26.1C22.8601 26.1 21.9601 26.46 18.3601 25.02C15.3001 23.58 12.7801 21.24 10.9801 18.54C9.90009 17.28 9.36009 15.66 9.18009 14.04C9.18009 12.6 9.72009 11.34 10.6201 10.44C10.9801 10.08 11.3401 9.9 11.7001 9.9H12.6001C12.9601 9.9 13.3201 9.9 13.5001 10.62C13.8601 11.52 14.7601 13.68 14.7601 13.86C14.9401 14.04 14.9401 14.4 14.7601 14.58C14.9401 14.94 14.7601 15.3 14.5801 15.48C14.4001 15.66 14.2201 16.02 14.0401 16.2C13.6801 16.38 13.5001 16.74 13.6801 17.1C14.4001 18.18 15.3001 19.26 16.2001 20.16C17.2801 21.06 18.3601 21.78 19.6201 22.32C19.9801 22.5 20.3401 22.5 20.5201 22.14C20.7001 21.78 21.6001 20.88 21.9601 20.52C22.3201 20.16 22.5001 20.16 22.8601 20.34L25.7401 21.78C26.1001 21.96 26.4601 22.14 26.6401 22.32C26.8201 22.86 26.8201 23.58 26.4601 24.12Z" fill="#120D0A"/>
</svg>
