<svg width="150" height="57" viewBox="0 0 150 57" fill="none" xmlns="http://www.w3.org/2000/svg">
<g clip-path="url(#clip0_20_1196)">
<path d="M7.43802 26.4706H0V51.2868H7.43802V26.4706Z" fill="black"/>
<path d="M149.794 38.8787C149.794 45.7317 144.151 51.2868 137.19 51.2868C130.229 51.2868 124.587 45.7317 124.587 38.8787C124.587 32.0259 130.229 26.4706 137.19 26.4706C144.151 26.4706 149.794 32.0259 149.794 38.8787ZM131.897 38.8787C131.897 41.7569 134.267 44.0901 137.19 44.0901C140.114 44.0901 142.484 41.7569 142.484 38.8787C142.484 36.0005 140.114 33.6673 137.19 33.6673C134.267 33.6673 131.897 36.0005 131.897 38.8787Z" fill="black"/>
<path d="M118.801 38.8787C118.801 37.2492 118.475 35.6358 117.842 34.1303C117.209 32.6249 116.28 31.2571 115.11 30.1049C113.94 28.9526 112.55 28.0387 111.021 27.4151C109.492 26.7916 107.853 26.4706 106.198 26.4706C104.543 26.4706 102.904 26.7916 101.375 27.4151C101.119 27.5195 100.867 27.6319 100.62 27.7523V20.6802H93.5947V38.8787V51.2868H100.905V38.8787C100.905 38.1943 101.041 37.5167 101.308 36.8844C101.574 36.2521 101.963 35.6776 102.455 35.1937C102.946 34.7098 103.53 34.3259 104.172 34.064C104.815 33.8021 105.503 33.6673 106.198 33.6673C106.893 33.6673 107.582 33.8021 108.224 34.064C108.866 34.3259 109.45 34.7098 109.941 35.1937C110.433 35.6776 110.822 36.2521 111.089 36.8844C111.355 37.5167 111.491 38.1943 111.491 38.8787V51.2868H118.801V38.8787Z" fill="black"/>
<path d="M87.6031 38.8787C87.6031 40.5081 87.2771 42.1217 86.6436 43.6272C86.0105 45.1323 85.082 46.5001 83.9118 47.6524C82.7415 48.8047 81.3519 49.7188 79.8229 50.3421C78.2936 50.9658 76.6547 51.2868 74.9998 51.2868C73.3448 51.2868 71.706 50.9658 70.1767 50.3421C69.9209 50.2379 69.6688 50.1254 69.4213 50.005C68.1886 49.4061 67.0626 48.612 66.0878 47.6524C64.9176 46.5001 63.989 45.1323 63.356 43.6268C62.7225 42.1217 62.3965 40.5081 62.3965 38.8787V26.4706H69.7064V38.8787C69.7064 39.5631 69.8432 40.2407 70.1093 40.873C70.3754 41.5055 70.7651 42.08 71.2568 42.5639C71.7481 43.0478 72.332 43.4316 72.9742 43.6934C73.6163 43.9552 74.3047 44.0901 74.9998 44.0901C75.6948 44.0901 76.3833 43.9552 77.0254 43.6934C77.6676 43.4316 78.2514 43.0478 78.7428 42.5639C79.2345 42.08 79.6242 41.5055 79.8903 40.873C80.1564 40.2407 80.2932 39.5631 80.2932 38.8787V26.4706H87.6031V38.8787Z" fill="black"/>
<path d="M38.4293 38.8787C38.4293 37.2492 38.1033 35.6357 37.4699 34.1303C36.8365 32.6249 35.9082 31.257 34.7379 30.1048C33.5675 28.9526 32.1782 28.0387 30.649 27.4151C29.1199 26.7915 27.481 26.4706 25.826 26.4706C24.1709 26.4706 22.532 26.7915 21.0029 27.4151C20.747 27.5194 20.4951 27.6319 20.2474 27.7523C19.015 28.3512 17.8886 29.1454 16.9141 30.1048C15.7438 31.257 14.8154 32.6249 14.182 34.1303C13.5486 35.6357 13.2227 37.2492 13.2227 38.8787V51.2868H20.5326V38.8787C20.5326 38.1943 20.6695 37.5166 20.9355 36.8844C21.2015 36.2521 21.5914 35.6776 22.083 35.1937C22.5745 34.7097 23.158 34.3259 23.8003 34.064C24.4425 33.8021 25.1308 33.6673 25.826 33.6673C26.5211 33.6673 27.2094 33.8021 27.8517 34.064C28.4939 34.3259 29.0774 34.7097 29.5689 35.1937C30.0605 35.6776 30.4504 36.2521 30.7164 36.8844C30.9825 37.5166 31.1194 38.1943 31.1194 38.8787V51.2868H38.4293V38.8787Z" fill="black"/>
<path d="M56.8181 26.4706C55.1632 26.4706 53.5243 26.7915 51.995 27.4151C51.7392 27.5194 51.4872 27.6319 51.2396 27.7523C50.007 28.3512 48.881 29.1454 47.9062 30.1048C46.7359 31.257 45.8074 32.6249 45.1743 34.1303C44.5409 35.6357 44.2148 37.2492 44.2148 38.8787V51.2868H51.5248V38.8787C51.5248 38.1943 51.6615 37.5166 51.9277 36.8844C52.1938 36.2521 52.5834 35.6776 53.0752 35.1937C53.5665 34.7097 54.1504 34.3259 54.7925 34.064C55.4347 33.8021 56.1231 33.6673 56.8181 33.6673V26.4706Z" fill="black"/>
<path d="M66.7358 56.25C68.2192 56.25 69.4217 55.0464 69.4217 53.5616C69.4217 52.0768 68.2192 50.8732 66.7358 50.8732C65.2523 50.8732 64.0498 52.0768 64.0498 53.5616C64.0498 55.0464 65.2523 56.25 66.7358 56.25Z" fill="#01A0E8"/>
<path d="M82.4379 56.25C83.9213 56.25 85.1239 55.0464 85.1239 53.5616C85.1239 52.0768 83.9213 50.8732 82.4379 50.8732C80.9545 50.8732 79.752 52.0768 79.752 53.5616C79.752 55.0464 80.9545 56.25 82.4379 56.25Z" fill="#01A0E8"/>
<path fill-rule="evenodd" clip-rule="evenodd" d="M62.3965 23.5754C62.3965 21.9459 62.7225 20.3324 63.356 18.827C63.989 17.3216 64.9176 15.9537 66.0878 14.8015C67.137 13.7686 68.3622 12.9272 69.7064 12.3147V4.13603H69.4213C68.2804 4.13603 67.3552 3.21015 67.3552 2.06801C67.3552 0.925883 68.2804 0 69.4213 0H80.5783C81.7192 0 82.6444 0.925883 82.6444 2.06801C82.6444 3.21015 81.7192 4.13603 80.5783 4.13603H80.2932V12.3147C80.3886 12.3583 80.4837 12.403 80.5783 12.449C81.8109 13.0479 82.937 13.8421 83.9118 14.8015C85.082 15.9537 86.0105 17.3216 86.6436 18.827C87.2771 20.3324 87.6031 21.9459 87.6031 23.5754H80.2932C80.2932 22.891 80.1564 22.2133 79.8903 21.5811C79.6242 20.9488 79.2345 20.3743 78.7428 19.8904C78.2514 19.4064 77.6676 19.0226 77.0254 18.7607C76.3833 18.4988 75.6948 18.364 74.9998 18.364C74.3047 18.364 73.6163 18.4988 72.9742 18.7607C72.332 19.0226 71.7481 19.4064 71.2568 19.8904C70.7651 20.3743 70.3754 20.9488 70.1093 21.5811C69.8432 22.2133 69.7064 22.891 69.7064 23.5754H62.3965ZM74.9998 11.1673C73.8089 11.1673 72.6266 11.3334 71.4874 11.6588V4.13603H78.5122V11.6588C77.3729 11.3334 76.1907 11.1673 74.9998 11.1673Z" fill="#01A0E8"/>
</g>
<defs>
<clipPath id="clip0_20_1196">
<rect width="150" height="56.25" fill="white"/>
</clipPath>
</defs>
</svg>
